<?xml version="1.0" encoding="UTF-8" standalone="no"?>
<svg
   width="24"
   height="24"
   viewBox="0 0 24 24"
   version="1.1"
   id="svg6898"
   xmlns="http://www.w3.org/2000/svg"
   xmlns:svg="http://www.w3.org/2000/svg">
  <defs
     id="defs6902" />
  <path
     d="M 19,0 H 5 C 2.239,0 0,2.239 0,5 v 14 c 0,2.761 2.239,5 5,5 h 14 c 2.762,0 5,-2.239 5,-5 V 5 C 24,2.239 21.762,0 19,0 Z M 8,19 H 5 V 8 H 8 Z M 6.5,6.732 c -0.966,0 -1.75,-0.79 -1.75,-1.764 0,-0.974 0.784,-1.764 1.75,-1.764 0.966,0 1.75,0.79 1.75,1.764 0,0.974 -0.783,1.764 -1.75,1.764 z M 20,19 h -3 v -5.604 c 0,-3.368 -4,-3.113 -4,0 V 19 H 10 V 8 h 3 v 1.765 c 1.396,-2.586 7,-2.777 7,2.476 z"
     id="path6896"
     style="fill:#ffb031;fill-opacity:1" />
  <g
     aria-label="H"
     transform="matrix(1.9122985,-1.9122985,1.9122985,1.9122985,-4149.457,-7021.1512)"
     id="text9361"
     style="font-weight:bold;font-size:232.386px;font-family:'Agency FB';-inkscape-font-specification:'Agency FB Bold';fill:#ffb031;stroke-width:39.7984;stroke-linecap:round;stroke-linejoin:round;paint-order:markers stroke fill">
    <path
       d="m -828.19805,2970.1705 v -136.1909 h 33.58704 v 51.7651 h 65.81244 v -51.7651 h 33.58704 v 136.1909 h -33.58704 v -56.2853 h -65.81244 v 56.2853 z"
       style="font-family:Arial;-inkscape-font-specification:'Arial Bold'"
       id="path9365" />
  </g>
</svg>
