<?xml version="1.0" encoding="UTF-8" standalone="no"?>
<!-- Created with Inkscape (http://www.inkscape.org/) -->

<svg
   width="40.997818mm"
   height="41.09449mm"
   viewBox="0 0 40.997818 41.09449"
   version="1.1"
   id="svg6772"
   xmlns="http://www.w3.org/2000/svg"
   xmlns:svg="http://www.w3.org/2000/svg">
  <defs
     id="defs6769" />
  <g
     id="layer1"
     transform="translate(-68.920445,-36.226948)"
     style="fill:#ffb031;fill-opacity:1">
    <style
       id="style8494">
.MsftOfcThm_Background1_Fill_v2 {
 fill:#FFFFFF; 
}
</style>
    <style
       id="style8508">
.MsftOfcThm_Background1_Fill_v2 {
 fill:#FFFFFF; 
}
</style>
    <g
       id="g8528"
       transform="matrix(1.9405551,0,0,1.9405551,-100.62985,-73.368197)"
       style="fill:#ffb031;fill-opacity:1">
      <path
         d="m 95.613702,62.085349 c 0.211666,-0.211666 0.343958,-0.502708 0.343958,-0.820208 0,-0.3175 -0.132292,-0.608542 -0.343958,-0.820208 l -3.65125,-3.624792 c -0.211667,-0.211667 -0.502709,-0.343958 -0.79375,-0.343958 -0.291042,0 -0.608542,0.132291 -0.820209,0.343958 l -0.396875,0.396875 5.265209,5.265208 z"
         class="MsftOfcThm_Background1_Fill_v2"
         fill="#FFFFFF"
         id="path8510"
         style="fill:#ffb031;fill-opacity:1;stroke-width:0.264583" />
      <path
         d="m 100.93183,71.425141 c -0.10584,0.105833 -0.26459,0.15875 -0.39688,0.15875 -0.13229,0 -0.29104,-0.05292 -0.39687,-0.15875 l -6.56167,-6.535208 c -0.105833,-0.105834 -0.15875,-0.264584 -0.15875,-0.396875 0,-0.132292 0.05292,-0.291042 0.15875,-0.396875 l 0.820208,-0.79375 -5.265208,-5.265209 c -0.343958,0.343959 -0.661458,0.661459 -0.873125,0.873125 -0.529167,0.502709 -0.846667,1.164167 -0.873125,1.878542 -0.07937,1.190625 0.211667,2.328333 0.608542,3.439583 0.423333,0.978959 0.978958,1.905 1.5875,2.778125 2.169583,3.254375 4.894791,6.085417 8.069791,8.334375 0.529167,0.396875 1.084792,0.740834 1.666875,1.058334 1.322922,0.661458 2.725212,1.137708 4.233332,1.243541 1.00542,0.07938 2.01084,-0.3175 2.69875,-1.058333 l 0.71438,-0.714375 -5.23875,-5.265208 z"
         class="MsftOfcThm_Background1_Fill_v2"
         fill="#FFFFFF"
         id="path8512"
         style="fill:#ffb031;fill-opacity:1;stroke-width:0.264583" />
      <path
         d="m 108.18141,73.039099 -3.65125,-3.65125 c -0.21167,-0.211666 -0.50271,-0.343958 -0.82021,-0.343958 -0.3175,0 -0.60854,0.132292 -0.82021,0.343958 l -0.39687,0.423334 5.26521,5.265208 0.39687,-0.396875 c 0.21167,-0.211667 0.34396,-0.502708 0.34396,-0.820208 0,-0.3175 -0.10583,-0.608542 -0.3175,-0.820209 z"
         class="MsftOfcThm_Background1_Fill_v2"
         fill="#FFFFFF"
         id="path8514"
         style="fill:#ffb031;fill-opacity:1;stroke-width:0.264583" />
    </g>
    <style
       id="style8530">
.MsftOfcThm_Background1_Fill_v2 {
 fill:#FFFFFF; 
}
</style>
  </g>
</svg>
