<?xml version="1.0" encoding="UTF-8" standalone="no"?>
<!-- Created with Inkscape (http://www.inkscape.org/) -->

<svg
   width="6.7569809mm"
   height="3.3764648mm"
   viewBox="0 0 6.7569809 3.3764648"
   version="1.1"
   id="svg13482"
   inkscape:version="1.2.2 (732a01da63, 2022-12-09)"
   sodipodi:docname="Tests logos.svg"
   xml:space="preserve"
   xmlns:inkscape="http://www.inkscape.org/namespaces/inkscape"
   xmlns:sodipodi="http://sodipodi.sourceforge.net/DTD/sodipodi-0.dtd"
   xmlns="http://www.w3.org/2000/svg"
   xmlns:svg="http://www.w3.org/2000/svg"><sodipodi:namedview
     id="namedview13484"
     pagecolor="#ffffff"
     bordercolor="#000000"
     borderopacity="0.25"
     inkscape:showpageshadow="2"
     inkscape:pageopacity="0.0"
     inkscape:pagecheckerboard="0"
     inkscape:deskcolor="#d1d1d1"
     inkscape:document-units="mm"
     showgrid="false"
     inkscape:zoom="5.6568545"
     inkscape:cx="268.70056"
     inkscape:cy="287.96922"
     inkscape:window-width="1920"
     inkscape:window-height="1017"
     inkscape:window-x="-8"
     inkscape:window-y="-8"
     inkscape:window-maximized="1"
     inkscape:current-layer="layer1" /><defs
     id="defs13479" /><g
     inkscape:label="Calque 1"
     inkscape:groupmode="layer"
     id="layer1"
     transform="translate(-59.736215,-81.181745)"><path
       sodipodi:type="star"
       style="fill:#ffb031;fill-opacity:1;stroke-width:4.99999;stroke-linecap:round;stroke-linejoin:round;paint-order:stroke markers fill"
       id="path1146"
       inkscape:flatsided="true"
       sodipodi:sides="6"
       sodipodi:cx="43.205631"
       sodipodi:cy="22.225"
       sodipodi:r1="0.74992883"
       sodipodi:r2="0.64945745"
       sodipodi:arg1="0.52359878"
       sodipodi:arg2="1.0471976"
       inkscape:rounded="0.15"
       inkscape:randomized="0"
       d="m 43.855089,22.599965 c -0.05624,0.09742 -0.536968,0.374964 -0.649458,0.374964 -0.112489,0 -0.593213,-0.277546 -0.649457,-0.374964 -0.05624,-0.09742 -0.05624,-0.65251 0,-0.749929 0.05625,-0.09742 0.536968,-0.374964 0.649457,-0.374964 0.11249,0 0.593213,0.277545 0.649458,0.374964 0.05624,0.09742 0.05624,0.65251 0,0.749929 z"
       transform="matrix(0.19880843,0,0,-0.19880843,51.284076,86.153656)" /><path
       sodipodi:type="star"
       style="fill:#ffb031;fill-opacity:1;stroke-width:4.99999;stroke-linecap:round;stroke-linejoin:round;paint-order:stroke markers fill"
       id="path1148"
       inkscape:flatsided="true"
       sodipodi:sides="6"
       sodipodi:cx="43.205631"
       sodipodi:cy="22.225"
       sodipodi:r1="0.74992883"
       sodipodi:r2="0.64945745"
       sodipodi:arg1="0.52359878"
       sodipodi:arg2="1.0471976"
       inkscape:rounded="0.15"
       inkscape:randomized="0"
       d="m 43.855089,22.599965 c -0.05624,0.09742 -0.536968,0.374964 -0.649458,0.374964 -0.112489,0 -0.593213,-0.277546 -0.649457,-0.374964 -0.05624,-0.09742 -0.05624,-0.65251 0,-0.749929 0.05625,-0.09742 0.536968,-0.374964 0.649457,-0.374964 0.11249,0 0.593213,0.277545 0.649458,0.374964 0.05624,0.09742 0.05624,0.65251 0,0.749929 z"
       transform="matrix(0.12864352,0,0,-0.12864352,54.447778,84.269726)" /><path
       sodipodi:type="star"
       style="fill:#ffb031;fill-opacity:1;stroke-width:4.99999;stroke-linecap:round;stroke-linejoin:round;paint-order:stroke markers fill"
       id="path1150"
       inkscape:flatsided="true"
       sodipodi:sides="6"
       sodipodi:cx="43.205631"
       sodipodi:cy="22.225"
       sodipodi:r1="0.74992883"
       sodipodi:r2="0.64945745"
       sodipodi:arg1="0.52359878"
       sodipodi:arg2="1.0471976"
       inkscape:rounded="0.15"
       inkscape:randomized="0"
       d="m 43.855089,22.599965 c -0.05624,0.09742 -0.536968,0.374964 -0.649458,0.374964 -0.112489,0 -0.593213,-0.277546 -0.649457,-0.374964 -0.05624,-0.09742 -0.05624,-0.65251 0,-0.749929 0.05625,-0.09742 0.536968,-0.374964 0.649457,-0.374964 0.11249,0 0.593213,0.277545 0.649458,0.374964 0.05624,0.09742 0.05624,0.65251 0,0.749929 z"
       transform="matrix(0.07765127,0,0,-0.07765127,56.790085,82.965774)" /><path
       sodipodi:type="star"
       style="fill:#ffb031;fill-opacity:1;stroke-width:4.99999;stroke-linecap:round;stroke-linejoin:round;paint-order:stroke markers fill"
       id="path1152"
       inkscape:flatsided="true"
       sodipodi:sides="6"
       sodipodi:cx="43.205631"
       sodipodi:cy="22.225"
       sodipodi:r1="0.74992883"
       sodipodi:r2="0.64945745"
       sodipodi:arg1="0.52359878"
       sodipodi:arg2="1.0471976"
       inkscape:rounded="0.15"
       inkscape:randomized="0"
       d="m 43.855089,22.599965 c -0.05624,0.09742 -0.536968,0.374964 -0.649458,0.374964 -0.112489,0 -0.593213,-0.277546 -0.649457,-0.374964 -0.05624,-0.09742 -0.05624,-0.65251 0,-0.749929 0.05625,-0.09742 0.536968,-0.374964 0.649457,-0.374964 0.11249,0 0.593213,0.277545 0.649458,0.374964 0.05624,0.09742 0.05624,0.65251 0,0.749929 z"
       transform="matrix(0.32820061,0,0,-0.32820061,45.827353,89.445197)" /><path
       sodipodi:type="star"
       style="fill:#ffb031;fill-opacity:1;stroke-width:4.99999;stroke-linecap:round;stroke-linejoin:round;paint-order:stroke markers fill"
       id="path1154"
       inkscape:flatsided="true"
       sodipodi:sides="6"
       sodipodi:cx="43.205631"
       sodipodi:cy="22.225"
       sodipodi:r1="0.74992883"
       sodipodi:r2="0.64945745"
       sodipodi:arg1="0.52359878"
       sodipodi:arg2="1.0471976"
       inkscape:rounded="0.15"
       inkscape:randomized="0"
       d="m 43.855089,22.599965 c -0.05624,0.09742 -0.536968,0.374964 -0.649458,0.374964 -0.112489,0 -0.593213,-0.277546 -0.649457,-0.374964 -0.05624,-0.09742 -0.05624,-0.65251 0,-0.749929 0.05625,-0.09742 0.536968,-0.374964 0.649457,-0.374964 0.11249,0 0.593213,0.277545 0.649458,0.374964 0.05624,0.09742 0.05624,0.65251 0,0.749929 z"
       transform="matrix(0.41640342,0,0,-0.41640342,42.39169,90.944667)" /><g
       aria-label="A"
       id="g1158"
       style="font-size:3.175px;font-family:adelia;-inkscape-font-specification:adelia;white-space:pre;fill:#ffb031;fill-opacity:1;stroke-width:4.99999;stroke-linecap:round;stroke-linejoin:round;paint-order:stroke markers fill"
       transform="translate(16.018255,58.469638)"><path
         id="path1156"
         style="-inkscape-font-specification:'Century Gothic';fill:#ffb031;fill-opacity:1;stroke-width:5"
         d="m 45.181738,22.847701 -1.105875,2.345593 h 0.254248 l 0.356567,-0.750342 h 0.736389 l -0.105936,-0.220141 h -0.528134 l 0.392225,-0.826306 0.846459,1.796789 h 0.244947 z"
         sodipodi:nodetypes="ccccccccccc" /></g><text
       xml:space="preserve"
       style="font-style:normal;font-variant:normal;font-weight:normal;font-stretch:normal;font-size:1.41111px;font-family:'Century Gothic';-inkscape-font-specification:'Century Gothic';opacity:1;fill:#ffb031;fill-opacity:1;stroke-width:4.99999;stroke-linecap:round;stroke-linejoin:round;paint-order:stroke markers fill"
       x="62.361839"
       y="83.669899"
       id="text1162"><tspan
         sodipodi:role="line"
         id="tspan1160"
         style="font-size:1.41111px;fill:#ffb031;fill-opacity:1;stroke-width:5"
         x="62.361839"
         y="83.669899">udirex</tspan></text><text
       xml:space="preserve"
       style="font-style:normal;font-variant:normal;font-weight:normal;font-stretch:normal;font-size:0.991687px;font-family:'Century Gothic';-inkscape-font-specification:'Century Gothic';letter-spacing:-0.0911115px;fill:#ffb031;fill-opacity:1;stroke-width:3.51384;stroke-linecap:round;stroke-linejoin:round;paint-order:stroke markers fill"
       x="59.979401"
       y="84.544655"
       id="text1166"><tspan
         sodipodi:role="line"
         id="tspan1164"
         style="font-size:0.991687px;fill:#ffb031;fill-opacity:1;stroke-width:3.51385"
         x="59.979401"
         y="84.544655">communication</tspan></text></g></svg>
