<?xml version="1.0" encoding="UTF-8"?><svg id="Calque_1" xmlns="http://www.w3.org/2000/svg" viewBox="0 0 754.12 455"><path d="M81.8,0c15.02,0,28.58,2.12,40.66,6.35,12.08,4.23,22.44,10.32,31.08,18.26,8.63,7.94,15.28,17.48,19.94,28.62,4.66,11.14,6.99,23.61,6.99,37.42s-2.38,26.29-7.12,37.42c-4.75,11.14-11.53,20.72-20.33,28.75-8.8,8.03-19.42,14.16-31.85,18.39-12.43,4.23-26.33,6.35-41.7,6.35H20.42c-10.87,0-19.68-8.81-19.68-19.68V19.68C.73,8.81,9.55,0,20.42,0h61.38Zm1.56,134.93c5.52,0,10.44-1.04,14.76-3.11,4.31-2.07,8.07-5.01,11.27-8.81,3.19-3.8,5.61-8.37,7.25-13.73,1.64-5.35,2.46-11.39,2.46-18.13s-.91-12.82-2.72-18.26c-1.81-5.44-4.4-10.14-7.77-14.11-3.37-3.97-7.43-6.99-12.17-9.06-4.75-2.07-10.06-3.11-15.93-3.11h0c-10.87,0-19.68,8.81-19.68,19.68v48.95c0,10.87,8.81,19.68,19.68,19.68h2.85Z"/><path d="M290.07,38.19c-8.24,1.07-15.58,3.93-22.02,8.58-5.27,3.8-9.8,8.61-13.6,14.43v-14c0-3.81-3.09-6.9-6.9-6.9h-44.47c-3.81,0-6.9,3.09-6.9,6.9v127.86c0,3.81,3.09,6.9,6.9,6.9h44.47c3.81,0,6.9-3.09,6.9-6.9V109.6c.34-.58,.61-1.22,.78-1.91,.84-3.32,2.35-6.23,4.53-8.73,3.54-4.06,8.59-6.86,15.15-8.42,4.6-1.09,9.71-1.46,15.33-1.1,4.02,.25,7.46-2.83,7.46-6.86V45.08c0-4.1-3.57-7.41-7.63-6.88Z"/><path d="M458.28,76.76c-5.78-12.86-14.46-22.83-26.03-29.91-11.57-7.08-25.64-10.62-42.22-10.62-15.2,0-28.45,3.02-39.75,9.06-11.31,6.05-20.12,14.55-26.42,25.51-6.3,10.97-9.45,23.96-9.45,38.98s3.07,27.19,9.2,38.07c6.12,10.88,14.97,19.29,26.55,25.25,11.56,5.96,25.38,8.93,41.44,8.93,13.81,0,26.11-2.24,36.9-6.73,8.18-3.4,15.39-7.9,21.64-13.48,3.26-2.92,3.29-8.03,.17-11.1l-19.85-19.51c-2.72-2.67-6.95-2.86-10-.58-7.49,5.61-15.39,8.41-23.68,8.41-5.18,0-9.71-1.25-13.59-3.76-3.88-2.5-6.91-6.17-9.07-11.01-.3-.67-.57-1.36-.83-2.07h84.69c4.24,0,7.66-3.47,7.67-7.7,0-14.24-2.45-26.82-7.36-37.75Zm-59.79,18.52h-26.61c.32-1.65,.71-3.25,1.19-4.79,1.46-4.75,3.66-8.5,6.61-11.27,2.93-2.76,6.56-4.14,10.88-4.14,3.45,0,6.47,.86,9.06,2.59,2.59,1.73,4.57,4.1,5.96,7.12l.04,.09c2.2,4.9-1.76,10.4-7.13,10.4Z"/><path d="M601.72,72.76c-4.9,9.2-15.99,13.2-25.64,9.25-3.92-1.6-7.6-2.97-11.03-4.09-7.94-2.59-14.68-3.88-20.2-3.88-2.42,0-4.37,.43-5.83,1.29-1.47,.87-2.2,1.99-2.2,3.37,0,2.25,1.77,4.06,5.31,5.44,3.54,1.38,8.11,2.81,13.73,4.27,5.61,1.47,11.52,3.2,17.74,5.18,6.21,1.99,12.12,4.66,17.74,8.03,5.61,3.37,10.18,7.68,13.73,12.95,3.54,5.27,5.31,11.87,5.31,19.81,0,9.67-2.63,18.13-7.9,25.38-5.27,7.25-12.69,12.87-22.27,16.84-9.58,3.97-20.94,5.96-34.06,5.96s-25.47-1.68-37.04-5.05c-4.68-1.36-9.23-3-13.63-4.92-10.57-4.6-15.13-17.16-10.09-27.53h0c4.83-9.95,16.68-14.07,26.79-9.57,3.3,1.47,6.55,2.74,9.75,3.82,8.72,2.94,17.05,4.4,24.99,4.4,1.9,0,3.49-.17,4.79-.52,1.29-.34,2.28-.82,2.98-1.42,.69-.6,1.04-1.33,1.04-2.2,0-2.07-1.73-3.8-5.18-5.18-3.45-1.38-7.9-2.72-13.34-4.02-5.44-1.29-11.27-2.93-17.48-4.92-6.21-1.98-12.04-4.66-17.49-8.03-5.44-3.37-9.88-7.68-13.34-12.95-3.46-5.26-5.18-11.87-5.18-19.81,0-10.01,2.59-18.65,7.77-25.9,5.18-7.25,12.43-12.91,21.76-16.96,9.32-4.06,20.28-6.09,32.89-6.09,11.22,0,22.36,1.47,33.41,4.4,3.97,1.06,7.91,2.31,11.81,3.77,11.4,4.25,16.27,17.77,10.55,28.51l-.19,.37Z"/><path d="M745.46,72.76c-4.9,9.2-15.99,13.2-25.64,9.25-3.92-1.6-7.6-2.97-11.03-4.09-7.94-2.59-14.68-3.88-20.2-3.88-2.42,0-4.37,.43-5.83,1.29-1.47,.87-2.2,1.99-2.2,3.37,0,2.25,1.77,4.06,5.31,5.44,3.54,1.38,8.11,2.81,13.73,4.27,5.61,1.47,11.52,3.2,17.74,5.18,6.21,1.99,12.12,4.66,17.74,8.03,5.61,3.37,10.18,7.68,13.73,12.95,3.54,5.27,5.31,11.87,5.31,19.81,0,9.67-2.63,18.13-7.9,25.38-5.27,7.25-12.69,12.87-22.27,16.84-9.58,3.97-20.94,5.96-34.06,5.96s-25.47-1.68-37.04-5.05c-4.68-1.36-9.23-3-13.63-4.92-10.57-4.6-15.13-17.16-10.09-27.53h0c4.83-9.95,16.68-14.07,26.79-9.57,3.3,1.47,6.55,2.74,9.75,3.82,8.72,2.94,17.05,4.4,24.99,4.4,1.9,0,3.49-.17,4.79-.52,1.29-.34,2.28-.82,2.98-1.42,.69-.6,1.04-1.33,1.04-2.2,0-2.07-1.73-3.8-5.18-5.18-3.45-1.38-7.9-2.72-13.34-4.02-5.44-1.29-11.27-2.93-17.48-4.92-6.21-1.98-12.04-4.66-17.49-8.03-5.44-3.37-9.88-7.68-13.34-12.95-3.46-5.26-5.18-11.87-5.18-19.81,0-10.01,2.59-18.65,7.77-25.9,5.18-7.25,12.43-12.91,21.76-16.96,9.32-4.06,20.28-6.09,32.89-6.09,11.22,0,22.36,1.47,33.41,4.4,3.97,1.06,7.91,2.31,11.81,3.77,11.4,4.25,16.27,17.77,10.55,28.51l-.19,.37Z"/><path d="M16.77,224.84H53.11c6.47,0,12.37,3.72,15.14,9.57l25.33,53.27c6.07,12.77,24.26,12.75,30.31-.03l25.15-53.2c2.77-5.86,8.68-9.6,15.16-9.6h36.32c9.26,0,16.77,7.51,16.77,16.77v148.01c0,9.26-7.51,16.77-16.77,16.77h-19.03c-9.26,0-16.77-7.51-16.77-16.77v-3.95c0-18.1-24.71-23.36-32.08-6.83h0c-2.7,6.04-8.7,9.94-15.31,9.94h-17.35c-6.62,0-12.62-3.89-15.31-9.94h0c-7.37-16.53-32.08-11.27-32.08,6.83v3.95c0,9.26-7.51,16.77-16.77,16.77H16.77c-9.26,0-16.77-7.51-16.77-16.77V241.61c0-9.26,7.51-16.77,16.77-16.77Z"/><path d="M378.72,301.55c-5.79-12.86-14.47-22.83-26.03-29.91-11.57-7.08-25.64-10.62-42.22-10.62-15.19,0-28.45,3.02-39.75,9.06-11.31,6.05-20.12,14.55-26.42,25.51-6.3,10.97-9.45,23.96-9.45,38.98s3.06,27.19,9.19,38.07c6.13,10.88,14.98,19.29,26.55,25.25,11.56,5.96,25.38,8.93,41.43,8.93,13.81,0,26.12-2.24,36.91-6.73,8.18-3.4,15.4-7.9,21.64-13.49,3.26-2.91,3.29-8.03,.17-11.09l-19.86-19.52c-2.71-2.67-6.95-2.86-10-.58-7.5,5.61-15.39,8.42-23.69,8.42-5.18,0-9.71-1.25-13.6-3.76-3.89-2.5-6.91-6.17-9.06-11.01-.3-.67-.57-1.36-.83-2.07h84.69c4.23,0,7.66-3.46,7.66-7.7,.01-14.24-2.44-26.82-7.36-37.75Zm-59.79,18.52h-26.61c.32-1.65,.71-3.25,1.19-4.79,1.47-4.75,3.67-8.5,6.6-11.27,2.93-2.76,6.56-4.14,10.88-4.14,3.45,0,6.47,.86,9.07,2.59,2.59,1.73,4.57,4.1,5.95,7.12l.04,.09c2.2,4.89-1.76,10.4-7.12,10.4Z"/><path d="M463.72,329.39c0,8.98,2.67,16.15,8.03,21.5,5.35,5.35,11.48,8.03,18.39,8.03s12.73-2.67,17.49-8.03c4.75-5.35,7.12-12.52,7.12-21.5v-76.14c0-16.59,13.45-30.04,30.04-30.04h0c16.59,0,30.04,13.45,30.04,30.04v76.14c0,16.06-3.5,30.04-10.49,41.95-6.99,11.91-16.83,21.15-29.52,27.71-12.69,6.56-27.67,9.84-44.94,9.84s-32.37-3.28-45.32-9.84c-12.95-6.56-23.01-15.8-30.17-27.71-7.17-11.91-10.75-25.9-10.75-41.95v-76.14c0-16.59,13.45-30.04,30.04-30.04h0c16.59,0,30.04,13.45,30.04,30.04v76.14Z"/><path d="M743.64,295.72c-5.35-11.05-12.91-19.59-22.66-25.64-9.75-6.04-21.19-9.06-34.31-9.06-10.88,0-20.33,3.02-28.36,9.06-3.8,2.86-7.19,6.29-10.17,10.26-4.55-10.17-14.74-17.26-26.6-17.26h0c-16.09,0-29.14,13.04-29.14,29.14v133.64c0,16.09,13.04,29.14,29.14,29.14h0c16.09,0,29.14-13.04,29.14-29.14v-35.72c2.59,2.93,5.44,5.51,8.54,7.74,8.29,5.96,17.95,8.93,29.01,8.93,12.95,0,24.17-2.98,33.67-8.93,9.49-5.96,16.83-14.33,22.01-25.12,5.18-10.79,7.77-23.44,7.77-37.94s-2.68-28.05-8.03-39.11Zm-53.35,52.05c-1.73,4.14-4.19,7.34-7.39,9.58-3.2,2.25-6.95,3.37-11.26,3.37s-7.82-1.12-11.01-3.37c-3.2-2.24-5.66-5.44-7.38-9.58-1.73-4.14-2.59-8.97-2.59-14.5s.86-10.36,2.59-14.5c1.72-4.14,4.18-7.34,7.38-9.58,3.19-2.24,6.86-3.37,11.01-3.37s8.07,1.13,11.26,3.37c3.2,2.25,5.66,5.44,7.39,9.58,1.72,4.14,2.59,8.98,2.59,14.5s-.87,10.36-2.59,14.5Z"/></svg>