<?xml version="1.0" encoding="UTF-8" standalone="no"?>
<svg
   fill="none"
   height="660.88013"
   width="1275.8071"
   viewBox="0 0 72.469118 37.414274"
   version="1.1"
   id="svg8"
   sodipodi:docname="html-1 (1).svg"
   xml:space="preserve"
   inkscape:export-filename="Icones\html.svg"
   inkscape:export-xdpi="96"
   inkscape:export-ydpi="96"
   xmlns:inkscape="http://www.inkscape.org/namespaces/inkscape"
   xmlns:sodipodi="http://sodipodi.sourceforge.net/DTD/sodipodi-0.dtd"
   xmlns="http://www.w3.org/2000/svg"
   xmlns:svg="http://www.w3.org/2000/svg"><defs
     id="defs12" /><sodipodi:namedview
     id="namedview10"
     pagecolor="#ffffff"
     bordercolor="#000000"
     borderopacity="0.25"
     inkscape:showpageshadow="2"
     inkscape:pageopacity="0.0"
     inkscape:pagecheckerboard="0"
     inkscape:deskcolor="#d1d1d1"
     showgrid="false" /><g
     id="g1594"
     transform="translate(-191.22487,-163.61423)"
     inkscape:export-filename="Icones\mySQL.svg"
     inkscape:export-xdpi="96"
     inkscape:export-ydpi="96"><path
       style="fill:#f2cf96;stroke-width:0.0568026"
       d="m 244.86501,199.02798 -0.10821,-0.1278 0.12781,0.10821 c 0.1201,0.10168 0.15366,0.1474 0.10821,0.1474 -0.0108,0 -0.0683,-0.0575 -0.12781,-0.12781 z m 2.72652,-0.0568 -0.1082,-0.12781 0.1278,0.10821 c 0.12011,0.10169 0.15367,0.14741 0.10821,0.14741 -0.0108,0 -0.0683,-0.0575 -0.12781,-0.12781 z m -3.35135,-0.51122 -0.10821,-0.12781 0.12781,0.10821 c 0.0703,0.0595 0.12781,0.11703 0.12781,0.12781 0,0.0454 -0.0457,0.0119 -0.14741,-0.10821 z m 2.72653,-0.0568 -0.10821,-0.1278 0.1278,0.10821 c 0.12011,0.10169 0.15367,0.1474 0.10821,0.1474 -0.0108,0 -0.0683,-0.0575 -0.1278,-0.12781 z m -3.29455,-0.45442 -0.10821,-0.1278 0.1278,0.10821 c 0.12011,0.10169 0.15367,0.1474 0.10821,0.1474 -0.0108,0 -0.0683,-0.0575 -0.1278,-0.12781 z m 2.72652,-0.0568 -0.10821,-0.1278 0.12781,0.1082 c 0.1201,0.10169 0.15366,0.14741 0.10821,0.14741 -0.0108,0 -0.0683,-0.0575 -0.12781,-0.12781 z m -7.16253,-0.25549 c 0.43144,-0.01 1.12159,-0.01 1.53367,5e-5 0.41208,0.01 0.0591,0.0176 -0.78443,0.0176 -0.84352,-3e-5 -1.18068,-0.008 -0.74924,-0.0176 z m -9.14861,-0.0535 c 0.0547,-0.0143 0.14414,-0.0143 0.19881,0 0.0547,0.0143 0.01,0.026 -0.0994,0.026 -0.10934,0 -0.15407,-0.0117 -0.0994,-0.026 z m 12.10003,-2.2e-4 c 0.0553,-0.0144 0.13195,-0.0135 0.17041,0.002 0.0385,0.0156 -0.007,0.0273 -0.10049,0.0262 -0.0937,-0.001 -0.12519,-0.0139 -0.0699,-0.0283 z m 10.13817,-7.3e-4 c 0.0703,-0.0135 0.18532,-0.0135 0.25562,0 0.0703,0.0135 0.0128,0.0246 -0.12781,0.0246 -0.14059,0 -0.1981,-0.0111 -0.12781,-0.0246 z m -9.28613,-0.0561 c 0.0553,-0.0144 0.13195,-0.0135 0.1704,0.002 0.0385,0.0156 -0.007,0.0273 -0.10048,0.0262 -0.0937,-0.001 -0.12519,-0.0139 -0.0699,-0.0283 z m 8.66486,5.6e-4 c 0.041,-0.0164 0.09,-0.0144 0.10887,0.004 0.0189,0.0189 -0.0147,0.0323 -0.0746,0.0298 -0.0662,-0.003 -0.0796,-0.0162 -0.0343,-0.0343 z m -5.93062,-0.20259 -0.10821,-0.12781 0.12781,0.10821 c 0.1201,0.10169 0.15366,0.1474 0.10821,0.1474 -0.0108,0 -0.0683,-0.0575 -0.12781,-0.1278 z m 14.85497,-0.14201 -0.13771,-0.15621 0.15621,0.13771 c 0.0859,0.0757 0.15621,0.14603 0.15621,0.15621 0,0.0445 -0.046,0.008 -0.17471,-0.13771 z m 1.99239,-0.16935 c -0.2837,-0.0333 -0.31975,-0.10046 -0.054,-0.10046 0.1234,0 0.22437,0.0223 0.22437,0.0495 0,0.0273 0.0447,0.0145 0.0994,-0.0284 0.0901,-0.0707 0.0921,-0.0686 0.0214,0.0214 -0.0429,0.0547 -0.0812,0.0953 -0.0852,0.0903 -0.004,-0.005 -0.0967,-0.0196 -0.20606,-0.0324 z m -1.40726,-1.04831 0.0128,-1.04024 0.0169,1.00824 0.0169,1.00825 h 0.1383 c 0.13244,0 0.13918,-0.0181 0.15874,-0.42621 l 0.0204,-0.4262 -0.004,0.4404 -0.004,0.44041 -0.18461,0.0178 -0.18461,0.0178 0.0128,-1.04025 z m -28.41409,0.72759 c 0,-0.0118 0.0447,-0.0565 0.0994,-0.0994 0.0901,-0.0707 0.0921,-0.0687 0.0214,0.0214 -0.0742,0.0946 -0.12085,0.12471 -0.12085,0.078 z m 16.18149,-0.30517 c -0.0707,-0.0901 -0.0686,-0.0921 0.0214,-0.0214 0.0547,0.0429 0.0994,0.0876 0.0994,0.0994 0,0.0468 -0.0466,0.0167 -0.12085,-0.078 z m -24.34279,-0.39759 c 0.93167,-0.009 2.43978,-0.009 3.35135,2e-5 0.91158,0.009 0.1493,0.0159 -1.69394,0.0159 -1.84324,-1e-5 -2.58908,-0.007 -1.65741,-0.016 z m 29.53327,10e-6 c 0.89819,-0.009 2.36795,-0.009 3.26615,0 0.89819,0.009 0.1633,0.016 -1.63308,0.016 -1.79638,0 -2.53126,-0.007 -1.63307,-0.016 z m -12.94218,-0.25565 -0.10821,-0.1278 0.1278,0.10821 c 0.12011,0.10169 0.15367,0.1474 0.10821,0.1474 -0.0108,0 -0.0683,-0.0575 -0.1278,-0.12781 z m 22.02087,0.0379 c 0.003,-0.0662 0.0162,-0.0796 0.0343,-0.0343 0.0164,0.041 0.0144,0.09 -0.004,0.10888 -0.0189,0.0189 -0.0323,-0.0147 -0.0298,-0.0746 z m -19.29435,-0.0947 -0.10821,-0.1278 0.12781,0.1082 c 0.1201,0.10169 0.15366,0.14741 0.10821,0.14741 -0.0108,0 -0.0683,-0.0575 -0.12781,-0.12781 z m 17.60281,-0.15621 c 0,-0.17182 0.0106,-0.24212 0.0237,-0.1562 0.013,0.0859 0.013,0.2265 0,0.31241 -0.013,0.0859 -0.0237,0.0156 -0.0237,-0.15621 z m 1.18901,0 c 0,-0.10934 0.0117,-0.15407 0.026,-0.0994 0.0143,0.0547 0.0143,0.14414 0,0.19881 -0.0143,0.0547 -0.026,0.01 -0.026,-0.0994 z m -22.08637,-0.29821 -0.10821,-0.1278 0.12781,0.1082 c 0.1201,0.10169 0.15366,0.14741 0.10821,0.14741 -0.0108,0 -0.0683,-0.0575 -0.12781,-0.12781 z m 2.72652,-0.0568 -0.1082,-0.12781 0.1278,0.10821 c 0.12011,0.10169 0.15367,0.1474 0.10821,0.1474 -0.0108,0 -0.0683,-0.0575 -0.12781,-0.1278 z m 3.58212,-3.05314 c 0,-1.76514 0.007,-2.48724 0.016,-1.60467 0.009,0.88257 0.009,2.32677 0,3.20934 -0.009,0.88257 -0.016,0.16047 -0.016,-1.60467 z m -11.87178,-0.0284 c -1e-5,-1.71828 0.007,-2.42941 0.016,-1.58029 0.009,0.84911 0.009,2.25498 2e-5,3.12414 -0.009,0.86916 -0.0161,0.17443 -0.0161,-1.54385 z m 4.93831,2.57032 -0.10821,-0.12781 0.12781,0.10821 c 0.12011,0.10169 0.15366,0.1474 0.10821,0.1474 -0.0108,0 -0.0683,-0.0575 -0.12781,-0.1278 z m 2.72653,-0.0568 -0.10821,-0.1278 0.1278,0.10821 c 0.12011,0.10168 0.15367,0.1474 0.10821,0.1474 -0.0108,0 -0.0683,-0.0575 -0.1278,-0.12781 z m 18.9384,-0.0246 c 0.041,-0.0164 0.09,-0.0144 0.10887,0.004 0.0189,0.0189 -0.0147,0.0323 -0.0745,0.0298 -0.0662,-0.003 -0.0796,-0.0162 -0.0343,-0.0343 z m -21.38641,-0.34448 c 0.40015,-0.01 1.03917,-0.01 1.42006,6e-5 0.38089,0.01 0.0535,0.0178 -0.72754,0.0178 -0.78103,-3e-5 -1.09267,-0.008 -0.69252,-0.0178 z m 21.52486,-0.0535 c 0.0547,-0.0143 0.14414,-0.0143 0.19881,0 0.0547,0.0143 0.01,0.026 -0.0994,0.026 -0.10935,0 -0.15408,-0.0117 -0.0994,-0.026 z m -30.97884,-1.02589 c -0.0707,-0.0901 -0.0687,-0.0921 0.0214,-0.0215 0.0547,0.0429 0.0994,0.0876 0.0994,0.0994 0,0.0468 -0.0466,0.0167 -0.12085,-0.078 z m -3.61392,-0.39748 c 0.42957,-0.01 1.1325,-0.01 1.56207,0 0.42957,0.01 0.0781,0.0175 -0.78103,0.0175 -0.85914,0 -1.21061,-0.008 -0.78104,-0.0175 z m -1.27451,-0.0531 c 0.041,-0.0164 0.09,-0.0144 0.10888,0.004 0.0189,0.0189 -0.0147,0.0323 -0.0746,0.0298 -0.0662,-0.003 -0.0796,-0.0162 -0.0343,-0.0343 z m 4.60101,-1.36327 c 0.041,-0.0164 0.09,-0.0144 0.10887,0.004 0.0189,0.0189 -0.0147,0.0323 -0.0746,0.0298 -0.0662,-0.003 -0.0796,-0.0162 -0.0343,-0.0343 z m -3.95133,-0.0571 c 0.0547,-0.0143 0.14414,-0.0143 0.19881,0 0.0547,0.0143 0.01,0.026 -0.0994,0.026 -0.10935,0 -0.15408,-0.0117 -0.0994,-0.026 z m -3.62632,-1.52292 c -6e-5,-0.5311 0.008,-0.75602 0.019,-0.49981 0.0105,0.25621 0.0106,0.69075 1.2e-4,0.96565 -0.0104,0.27489 -0.019,0.0653 -0.0191,-0.46584 z m 21.38703,-1.15025 -0.13771,-0.15621 0.15621,0.13771 c 0.146,0.12871 0.18225,0.17471 0.1377,0.17471 -0.0102,0 -0.0805,-0.0703 -0.1562,-0.15621 z m -17.78911,-0.44944 c 0.0391,-0.0157 0.10296,-0.0157 0.14201,0 0.0391,0.0158 0.007,0.0286 -0.071,0.0286 -0.0781,0 -0.11006,-0.0129 -0.071,-0.0286 z m 13.72143,-0.005 c 0.52528,-0.009 1.3688,-0.009 1.87448,4e-5 0.50569,0.009 0.0759,0.0171 -0.95505,0.0171 -1.03096,-2e-5 -1.44471,-0.008 -0.91943,-0.0171 z m -6.64114,-0.80952 c 0,-0.453 0.009,-0.63831 0.0196,-0.41181 0.0108,0.2265 0.0108,0.59713 0,0.82363 -0.0108,0.2265 -0.0196,0.0412 -0.0196,-0.41182 z m 12.61243,0.21301 -0.16684,-0.1846 0.18461,0.16683 c 0.10154,0.0918 0.18461,0.17483 0.18461,0.18461 0,0.0439 -0.0469,0.005 -0.20238,-0.16684 z m -10.56171,0.0142 c 0.0566,-0.0625 0.1156,-0.11361 0.13122,-0.11361 0.0156,0 -0.0179,0.0511 -0.0744,0.11361 -0.0566,0.0625 -0.11559,0.1136 -0.13122,0.1136 -0.0156,0 0.0179,-0.0511 0.0744,-0.1136 z m -9.78316,-1.00501 c 0.0553,-0.0144 0.13195,-0.0135 0.17041,0.002 0.0385,0.0156 -0.007,0.0273 -0.10048,0.0262 -0.0937,-10e-4 -0.12519,-0.0139 -0.0699,-0.0283 z m 12.43868,2.3e-4 c 0.0547,-0.0143 0.14414,-0.0143 0.19881,0 0.0547,0.0143 0.01,0.026 -0.0994,0.026 -0.10935,0 -0.15408,-0.0117 -0.0994,-0.026 z m 5.11224,0 c 0.0547,-0.0143 0.14413,-0.0143 0.1988,0 0.0547,0.0143 0.01,0.026 -0.0994,0.026 -0.10935,0 -0.15408,-0.0117 -0.0994,-0.026 z"
       id="path1608" /><path
       style="fill:#adccd8;stroke-width:0.0568026"
       d="m 218.45721,198.92858 c 0.0565,-0.0625 0.1156,-0.11361 0.13122,-0.11361 0.0156,0 -0.0179,0.0511 -0.0744,0.11361 -0.0565,0.0625 -0.11559,0.1136 -0.13122,0.1136 -0.0156,0 0.0179,-0.0511 0.0744,-0.1136 z m -13.10653,-5.9697 c -0.008,-2.56479 0.004,-4.67509 0.0277,-4.68957 0.0234,-0.0145 0.0426,2.08398 0.0426,4.66325 0,2.57926 -0.0125,4.68956 -0.0277,4.68956 -0.0153,0 -0.0344,-2.09846 -0.0426,-4.66324 z m 9.48927,4.56388 c 0.7285,-0.009 1.90431,-0.009 2.61291,2e-5 0.7086,0.009 0.11255,0.0164 -1.32455,0.0164 -1.43711,-2e-5 -2.01687,-0.007 -1.28836,-0.0164 z m -17.03477,-0.34086 -0.1377,-0.15621 0.1562,0.13771 c 0.146,0.12871 0.18226,0.17471 0.13771,0.17471 -0.0102,0 -0.0805,-0.0703 -0.15621,-0.15621 z m 12.46889,-0.76684 -0.16683,-0.1846 0.18461,0.16683 c 0.17208,0.15551 0.21071,0.20238 0.16683,0.20238 -0.01,0 -0.0928,-0.0831 -0.18461,-0.18461 z m 3.08866,-0.36541 c 0.041,-0.0164 0.09,-0.0144 0.10888,0.004 0.0189,0.0189 -0.0147,0.0323 -0.0746,0.0298 -0.0662,-0.003 -0.0796,-0.0162 -0.0343,-0.0343 z m 5.37776,-3.11374 7.4e-4,-3.06734 1.20709,-0.002 1.20709,-0.002 -1.1924,0.0171 -1.1924,0.0171 -0.0154,3.05201 -0.0154,3.05201 7.3e-4,-3.06734 z m -8.98022,1.73248 c 0,-0.42176 0.009,-0.5943 0.0199,-0.38342 0.0109,0.21088 0.0109,0.55595 0,0.76683 -0.0109,0.21088 -0.0199,0.0383 -0.0199,-0.38341 z m 52.94401,-5.69446 -0.28188,-0.29821 0.29821,0.28187 c 0.27711,0.26193 0.32427,0.31455 0.28188,0.31455 -0.009,0 -0.14318,-0.13419 -0.29821,-0.29821 z m -1.02389,-1.13605 -0.16683,-0.18461 0.18461,0.16683 c 0.17208,0.15552 0.21072,0.20239 0.16683,0.20239 -0.01,0 -0.0928,-0.0831 -0.18461,-0.18461 z m -58.13385,-0.86624 c 0.0734,-0.0781 0.14619,-0.14201 0.16181,-0.14201 0.0156,0 -0.0316,0.0639 -0.10501,0.14201 -0.0734,0.0781 -0.14618,0.142 -0.16181,0.142 -0.0156,0 0.0316,-0.0639 0.10501,-0.142 z m 44.306,-2.72652 c -0.13797,-0.14059 -0.23808,-0.25562 -0.22246,-0.25562 0.0156,0 0.14129,0.11503 0.27926,0.25562 0.13798,0.14058 0.23809,0.25561 0.22247,0.25561 -0.0156,0 -0.14129,-0.11503 -0.27927,-0.25561 z m -0.2042,0.0142 -0.10821,-0.12781 0.1278,0.10821 c 0.12011,0.10169 0.15367,0.1474 0.10821,0.1474 -0.0108,0 -0.0683,-0.0575 -0.1278,-0.1278 z m -0.42787,-0.42602 c -0.0707,-0.0901 -0.0687,-0.0921 0.0214,-0.0215 0.0946,0.0742 0.12471,0.12085 0.078,0.12085 -0.0118,0 -0.0565,-0.0447 -0.0994,-0.0994 z m 12.60676,0.0606 c 0.041,-0.0164 0.09,-0.0144 0.10888,0.004 0.0189,0.0189 -0.0147,0.0323 -0.0746,0.0298 -0.0662,-0.003 -0.0796,-0.0162 -0.0343,-0.0343 z m -13.96472,-1.25346 -0.31047,-0.32661 0.32661,0.31047 c 0.17964,0.17076 0.32662,0.31774 0.32662,0.32662 0,0.0422 -0.0543,-0.007 -0.34276,-0.31048 z m -4.8699,-4.72881 c 0,-0.10935 0.0117,-0.15408 0.026,-0.0994 0.0143,0.0547 0.0143,0.14414 0,0.19881 -0.0143,0.0547 -0.026,0.01 -0.026,-0.0994 z m 2.94056,-0.34082 c -0.0512,-0.0331 -0.0582,-0.0554 -0.0176,-0.0559 0.0372,-4.5e-4 0.0834,0.0247 0.10276,0.0559 0.0436,0.0705 0.0239,0.0705 -0.0852,0 z m -2.93941,-0.25561 c 6.3e-4,-0.12496 0.0123,-0.1694 0.0258,-0.0987 0.0136,0.0707 0.0131,0.1729 -0.001,0.22721 -0.0142,0.0543 -0.0253,-0.004 -0.0247,-0.12847 z m -0.3582,-3.87677 -0.19575,-0.21301 0.21301,0.19575 c 0.19826,0.1822 0.23912,0.23027 0.19575,0.23027 -0.009,0 -0.10535,-0.0959 -0.21301,-0.21301 z m 8.23749,-3.63537 -0.31048,-0.32661 0.32662,0.31047 c 0.17964,0.17076 0.32661,0.31774 0.32661,0.32662 0,0.0422 -0.0543,-0.007 -0.34275,-0.31048 z m -6.01913,-0.14925 c 0,-0.0118 0.0447,-0.0565 0.0994,-0.0994 0.0901,-0.0707 0.0921,-0.0686 0.0215,0.0214 -0.0742,0.0946 -0.12085,0.12471 -0.12085,0.078 z m 6.98241,-0.41877 -0.1377,-0.15621 0.1562,0.13771 c 0.0859,0.0757 0.15621,0.14603 0.15621,0.1562 0,0.0446 -0.046,0.008 -0.17471,-0.1377 z m -1.82063,-0.22721 c -0.0707,-0.0901 -0.0686,-0.0921 0.0214,-0.0215 0.0946,0.0742 0.12471,0.12085 0.078,0.12085 -0.0118,0 -0.0565,-0.0447 -0.0994,-0.0994 z m -4.812,-0.18461 c 0,-0.0781 0.0129,-0.11006 0.0286,-0.071 0.0158,0.0391 0.0158,0.10295 0,0.142 -0.0158,0.0391 -0.0286,0.007 -0.0286,-0.071 z m -1.45501,-0.73451 c -0.0378,-0.0611 0.0734,-0.14584 0.12443,-0.0948 0.0188,0.0188 0.003,0.0341 -0.0355,0.0341 -0.0383,0 -0.0538,0.0256 -0.0345,0.0568 0.0193,0.0312 0.0223,0.0568 0.007,0.0568 -0.0156,0 -0.0431,-0.0238 -0.0611,-0.0529 z m 0.41295,-0.15633 c 0.041,-0.0164 0.09,-0.0144 0.10887,0.004 0.0189,0.0189 -0.0147,0.0323 -0.0746,0.0298 -0.0662,-0.003 -0.0796,-0.0162 -0.0343,-0.0343 z m 0.22366,-1.7029 c 0.0391,-0.0157 0.10295,-0.0157 0.142,0 0.0391,0.0158 0.007,0.0286 -0.071,0.0286 -0.0781,0 -0.11006,-0.0129 -0.071,-0.0286 z m 0.1704,-1.02244 c 0.0391,-0.0158 0.10296,-0.0158 0.14201,0 0.0391,0.0158 0.007,0.0286 -0.071,0.0286 -0.0781,0 -0.11006,-0.0129 -0.071,-0.0286 z m -4.42705,-1.81887 c 0.041,-0.0164 0.09,-0.0144 0.10887,0.004 0.0189,0.0189 -0.0147,0.0323 -0.0745,0.0298 -0.0662,-0.003 -0.0796,-0.0162 -0.0343,-0.0343 z"
       id="path1606" /><path
       style="fill:#8eb8ca;stroke-width:0.0568026"
       d="m 209.81724,200.14983 c 1.1e-4,-0.43738 0.009,-0.6088 0.0198,-0.38093 0.0108,0.22787 0.0107,0.58572 -1.7e-4,0.79524 -0.0109,0.20951 -0.0197,0.0231 -0.0196,-0.41431 z m -16.21115,-7.27072 c 0,-2.58783 0.0134,-4.69178 0.0297,-4.67544 0.0376,0.0376 0.0356,9.31525 -0.002,9.35283 -0.0153,0.0153 -0.0278,-2.08956 -0.0278,-4.67739 z m 69.29188,-3.25195 c -0.0707,-0.0901 -0.0686,-0.0921 0.0215,-0.0215 0.0946,0.0742 0.12471,0.12085 0.078,0.12085 -0.0118,0 -0.0565,-0.0447 -0.0994,-0.0994 z m -71.6731,-1.63781 c 0.003,-0.0662 0.0162,-0.0796 0.0343,-0.0343 0.0164,0.041 0.0144,0.09 -0.004,0.10887 -0.0189,0.0189 -0.0323,-0.0147 -0.0298,-0.0745 z m 68.76922,-4.09427 c 0.039,-0.0158 0.10296,-0.0158 0.14201,0 0.039,0.0158 0.007,0.0286 -0.071,0.0286 -0.0781,0 -0.11005,-0.0129 -0.071,-0.0286 z m 1.51407,-0.71501 -0.10821,-0.12781 0.12781,0.10821 c 0.1201,0.10169 0.15366,0.1474 0.10821,0.1474 -0.0108,0 -0.0683,-0.0575 -0.12781,-0.1278 z m -19.00926,-0.59145 c 0.0391,-0.0157 0.10296,-0.0157 0.14201,0 0.0391,0.0158 0.007,0.0286 -0.071,0.0286 -0.0781,0 -0.11005,-0.0129 -0.071,-0.0286 z m -0.90189,-0.4594 c -0.0707,-0.0901 -0.0686,-0.0921 0.0214,-0.0215 0.0946,0.0742 0.12471,0.12085 0.078,0.12085 -0.0118,0 -0.0565,-0.0447 -0.0994,-0.0994 z m -0.60861,-3.93358 c 0,-0.0781 0.0129,-0.11005 0.0286,-0.071 0.0158,0.0391 0.0158,0.10295 0,0.14201 -0.0158,0.0391 -0.0286,0.007 -0.0286,-0.071 z m -0.004,-1.16918 c 0.003,-0.0662 0.0162,-0.0796 0.0343,-0.0343 0.0164,0.041 0.0144,0.09 -0.004,0.10887 -0.0189,0.0189 -0.0323,-0.0147 -0.0298,-0.0746 z m 0.80182,-3.28982 c 0.001,-0.0937 0.0139,-0.12519 0.0283,-0.0699 0.0144,0.0553 0.0135,0.13195 -0.002,0.17041 -0.0156,0.0385 -0.0273,-0.007 -0.0262,-0.10049 z m 7.47962,-3.53596 c -0.0707,-0.0901 -0.0686,-0.0921 0.0215,-0.0215 0.0946,0.0742 0.12471,0.12086 0.0779,0.12086 -0.0118,0 -0.0565,-0.0447 -0.0994,-0.0994 z m -0.79524,-0.79523 c -0.0707,-0.0901 -0.0686,-0.0921 0.0214,-0.0215 0.0946,0.0742 0.12471,0.12085 0.078,0.12085 -0.0118,0 -0.0565,-0.0447 -0.0994,-0.0994 z m -6.14163,-1.47189 c 0.0391,-0.0158 0.10296,-0.0158 0.14201,0 0.0391,0.0158 0.007,0.0286 -0.071,0.0286 -0.0781,0 -0.11006,-0.0129 -0.071,-0.0286 z m 0.28757,-1.70526 c 0.041,-0.0164 0.09,-0.0144 0.10887,0.004 0.0189,0.0189 -0.0147,0.0323 -0.0746,0.0298 -0.0662,-0.003 -0.0796,-0.0162 -0.0343,-0.0343 z m -0.22721,-1.02245 c 0.041,-0.0164 0.09,-0.0144 0.10887,0.004 0.0189,0.0189 -0.0147,0.0323 -0.0746,0.0298 -0.0662,-0.003 -0.0796,-0.0162 -0.0343,-0.0343 z m -4.66136,-0.85085 c 0.0391,-0.0158 0.10295,-0.0158 0.142,0 0.039,0.0158 0.007,0.0286 -0.071,0.0286 -0.0781,0 -0.11006,-0.0129 -0.071,-0.0286 z m 0.14308,-0.96739 c 0.0553,-0.0144 0.13195,-0.0135 0.17041,0.002 0.0385,0.0156 -0.007,0.0273 -0.10049,0.0262 -0.0937,-0.001 -0.12518,-0.0139 -0.0699,-0.0283 z"
       id="path1604" /><path
       style="fill:#ecb356;stroke-width:0.0568026"
       d="m 246.44939,199.22684 c 0.99129,-0.012 1.34114,-0.0335 1.31188,-0.0809 -0.0245,-0.0396 -0.0146,-0.0489 0.0257,-0.024 0.19939,0.12323 -0.0283,0.14654 -1.31188,0.13431 l -1.37746,-0.0131 z m -1.81159,-0.42607 -0.10821,-0.1278 0.12781,0.10821 c 0.1201,0.10168 0.15366,0.1474 0.10821,0.1474 -0.0108,0 -0.0683,-0.0575 -0.12781,-0.12781 z m 2.55612,-0.17041 -0.10821,-0.1278 0.1278,0.10821 c 0.12011,0.10169 0.15367,0.1474 0.10821,0.1474 -0.0108,0 -0.0683,-0.0575 -0.1278,-0.12781 z m -3.1544,-0.36921 c -0.0707,-0.0901 -0.0686,-0.0921 0.0214,-0.0214 0.0946,0.0742 0.12471,0.12085 0.078,0.12085 -0.0118,0 -0.0565,-0.0447 -0.0994,-0.0994 z m 2.55612,-0.17041 c -0.0707,-0.0901 -0.0686,-0.0921 0.0214,-0.0215 0.0547,0.0429 0.0994,0.0876 0.0994,0.0994 0,0.0468 -0.0466,0.0167 -0.12085,-0.078 z m -3.15069,-0.36922 -0.10821,-0.1278 0.1278,0.10821 c 0.12011,0.10169 0.15367,0.1474 0.10821,0.1474 -0.0108,0 -0.0683,-0.0575 -0.1278,-0.12781 z m 18.36682,-0.0259 c 0.0703,-0.0135 0.18532,-0.0135 0.25561,0 0.0703,0.0135 0.0128,0.0246 -0.1278,0.0246 -0.14059,0 -0.1981,-0.0111 -0.12781,-0.0246 z m -15.81071,-0.14452 -0.10821,-0.12781 0.12781,0.10821 c 0.0703,0.0595 0.12781,0.11703 0.12781,0.1278 0,0.0455 -0.0457,0.0119 -0.14741,-0.1082 z m -21.28136,0.0284 c 0.97629,-0.009 2.57386,-0.009 3.55016,0 0.97629,0.009 0.17751,0.0159 -1.77508,0.0159 -1.95259,0 -2.75138,-0.007 -1.77508,-0.0159 z m 13.40895,0.004 c 0.041,-0.0164 0.09,-0.0144 0.10887,0.004 0.0189,0.0189 -0.0147,0.0323 -0.0745,0.0298 -0.0662,-0.003 -0.0796,-0.0162 -0.0343,-0.0343 z m 3.7749,-5.7e-4 c 0.0553,-0.0144 0.13196,-0.0135 0.17041,0.002 0.0385,0.0156 -0.007,0.0273 -0.10048,0.0262 -0.0937,-0.001 -0.12519,-0.0139 -0.0699,-0.0283 z m 12.35348,-0.003 c 0.88257,-0.009 2.32678,-0.009 3.20935,0 0.88257,0.009 0.16046,0.016 -1.60468,0.016 -1.76514,0 -2.48724,-0.007 -1.60467,-0.016 z m -23.68312,-0.053 c 0.041,-0.0164 0.09,-0.0144 0.10887,0.004 0.0189,0.0189 -0.0147,0.0323 -0.0746,0.0298 -0.0662,-0.003 -0.0796,-0.0162 -0.0343,-0.0343 z m 12.209,0.001 c 0.0391,-0.0158 0.10296,-0.0158 0.14201,0 0.0391,0.0158 0.007,0.0286 -0.071,0.0286 -0.0781,0 -0.11006,-0.0129 -0.071,-0.0286 z m 9.09196,-0.001 c 0.041,-0.0164 0.09,-0.0144 0.10888,0.004 0.0189,0.0189 -0.0147,0.0323 -0.0746,0.0298 -0.0662,-0.003 -0.0796,-0.0162 -0.0343,-0.0343 z m 9.9653,-0.17076 c 0.0547,-0.0143 0.14414,-0.0143 0.19881,0 0.0547,0.0143 0.01,0.026 -0.0994,0.026 -0.10935,0 -0.15408,-0.0117 -0.0994,-0.026 z m -26.12037,-0.77028 -0.10821,-0.1278 0.12781,0.1082 c 0.1201,0.10169 0.15366,0.14741 0.1082,0.14741 -0.0108,0 -0.0683,-0.0575 -0.1278,-0.12781 z m 10.59907,0.0496 c 0,-0.0118 0.0447,-0.0565 0.0994,-0.0994 0.0901,-0.0707 0.0921,-0.0686 0.0214,0.0215 -0.0742,0.0946 -0.12085,0.12471 -0.12085,0.078 z m 17.34103,-0.68859 c 5.7e-4,-0.1562 0.0115,-0.21336 0.0245,-0.12702 0.0131,0.0863 0.0127,0.21415 -8e-4,0.28401 -0.0135,0.0699 -0.0242,-7.8e-4 -0.0237,-0.15699 z m -24.01533,0.10285 c 0.9759,-0.0407 1.95987,-0.0424 1.95979,-0.003 -6e-5,0.0234 -0.53049,0.0375 -1.17875,0.0313 -0.64826,-0.006 -0.99973,-0.0187 -0.78104,-0.0279 z m -9.95357,-0.057 c 0.0553,-0.0144 0.13195,-0.0135 0.17041,0.002 0.0385,0.0156 -0.007,0.0273 -0.10048,0.0262 -0.0937,-0.001 -0.12519,-0.0139 -0.0699,-0.0283 z m 22.66422,0 c 0.0553,-0.0144 0.13196,-0.0135 0.17041,0.002 0.0385,0.0156 -0.007,0.0273 -0.10048,0.0262 -0.0937,-0.001 -0.12519,-0.0139 -0.0699,-0.0283 z m -21.45824,-0.41505 c 0.0565,-0.0625 0.11559,-0.11361 0.13121,-0.11361 0.0156,0 -0.0179,0.0511 -0.0744,0.11361 -0.0565,0.0625 -0.11559,0.1136 -0.13121,0.1136 -0.0156,0 0.0179,-0.0511 0.0744,-0.1136 z m 13.51901,0 c 0.0565,-0.0625 0.11559,-0.11361 0.13121,-0.11361 0.0156,0 -0.0179,0.0511 -0.0744,0.11361 -0.0566,0.0625 -0.11559,0.1136 -0.13121,0.1136 -0.0156,0 0.0179,-0.0511 0.0744,-0.1136 z m -3.387,-0.0426 c -0.0707,-0.0901 -0.0686,-0.0921 0.0215,-0.0214 0.0946,0.0742 0.1247,0.12085 0.0779,0.12085 -0.0118,0 -0.0565,-0.0447 -0.0994,-0.0994 z m 2.55611,-0.1704 c -0.0707,-0.0901 -0.0686,-0.0921 0.0214,-0.0214 0.0946,0.0742 0.12471,0.12085 0.078,0.12085 -0.0118,0 -0.0565,-0.0447 -0.0994,-0.0994 z m -10.02303,-1.03665 c 0,-0.60921 0.008,-0.85843 0.0186,-0.55382 0.0102,0.3046 0.0102,0.80304 0,1.10765 -0.0102,0.3046 -0.0186,0.0554 -0.0186,-0.55383 z m -2.38691,0.0568 c 0,-0.453 0.009,-0.63832 0.0196,-0.41182 0.0108,0.2265 0.0108,0.59714 0,0.82364 -0.0108,0.2265 -0.0196,0.0412 -0.0196,-0.41182 z m 9.25925,0.61063 -0.10821,-0.12781 0.12781,0.10821 c 0.1201,0.10169 0.15366,0.14741 0.10821,0.14741 -0.0108,0 -0.0683,-0.0575 -0.12781,-0.12781 z m 22.40676,-0.0852 c -0.0707,-0.0901 -0.0686,-0.0921 0.0215,-0.0214 0.0547,0.0429 0.0994,0.0876 0.0994,0.0994 0,0.0468 -0.0466,0.0167 -0.12085,-0.078 z m -19.85064,-0.0852 -0.10821,-0.1278 0.1278,0.10821 c 0.0703,0.0595 0.12781,0.11702 0.12781,0.1278 0,0.0455 -0.0457,0.0119 -0.1474,-0.10821 z m 1.76425,-2.74072 c -1e-5,-1.59331 0.007,-2.2533 0.0162,-1.46664 0.009,0.78666 0.009,2.09028 2e-5,2.89693 -0.009,0.80665 -0.0162,0.16302 -0.0162,-1.43029 z m 18.40066,2.62712 -0.10821,-0.12781 0.1278,0.10821 c 0.12011,0.10169 0.15367,0.1474 0.10821,0.1474 -0.0108,0 -0.0683,-0.0575 -0.1278,-0.1278 z m -23.34586,-0.28402 -0.10821,-0.1278 0.12781,0.10821 c 0.12011,0.10169 0.15366,0.1474 0.10821,0.1474 -0.0108,0 -0.0683,-0.0575 -0.12781,-0.12781 z m -10.20131,-1.67187 c 0.041,-0.0164 0.09,-0.0144 0.10887,0.004 0.0189,0.0189 -0.0147,0.0323 -0.0745,0.0298 -0.0662,-0.003 -0.0796,-0.0162 -0.0343,-0.0343 z m 3.44363,-0.37302 -0.16683,-0.18461 0.1846,0.16684 c 0.17209,0.15551 0.21072,0.20238 0.16684,0.20238 -0.01,0 -0.0928,-0.0831 -0.18461,-0.18461 z m -9.4613,-0.65323 c -0.0707,-0.0901 -0.0686,-0.0921 0.0215,-0.0214 0.0547,0.0429 0.0994,0.0876 0.0994,0.0994 0,0.0467 -0.0466,0.0167 -0.12085,-0.078 z m 6.8129,-0.39382 c 0.041,-0.0164 0.09,-0.0144 0.10888,0.004 0.0189,0.0189 -0.0147,0.0323 -0.0746,0.0298 -0.0662,-0.003 -0.0796,-0.0162 -0.0343,-0.0343 z m -5.02252,-1.72207 c 0,-0.42176 0.009,-0.5943 0.0199,-0.38342 0.0109,0.21088 0.0109,0.55596 0,0.76683 -0.0109,0.21088 -0.0199,0.0383 -0.0199,-0.38341 z m 0.14815,-1.1007 c 0,-0.0118 0.0447,-0.0565 0.0994,-0.0994 0.0901,-0.0707 0.0921,-0.0686 0.0215,0.0214 -0.0742,0.0946 -0.12086,0.12471 -0.12086,0.078 z m 0.89819,-0.35817 c 0.041,-0.0164 0.09,-0.0144 0.10888,0.004 0.0189,0.0189 -0.0147,0.0323 -0.0746,0.0298 -0.0662,-0.003 -0.0796,-0.0162 -0.0343,-0.0343 z m 12.74971,-5.7e-4 c 0.0553,-0.0144 0.13195,-0.0134 0.17041,0.002 0.0385,0.0156 -0.007,0.0273 -0.10049,0.0262 -0.0937,-0.001 -0.12519,-0.0139 -0.0699,-0.0283 z m 3.97618,0 c 0.0553,-0.0144 0.13195,-0.0134 0.17041,0.002 0.0385,0.0156 -0.007,0.0273 -0.10049,0.0262 -0.0937,-0.001 -0.12519,-0.0139 -0.0699,-0.0283 z m -16.92824,-1.59025 c 0.0547,-0.0143 0.14413,-0.0143 0.1988,0 0.0547,0.0143 0.01,0.026 -0.0994,0.026 -0.10934,0 -0.15408,-0.0117 -0.0994,-0.026 z m 13.60421,-0.003 c 0.66388,-0.009 1.75023,-0.009 2.41411,0 0.66388,0.009 0.1207,0.0165 -1.20706,0.0165 -1.32776,0 -1.87093,-0.007 -1.20705,-0.0165 z"
       id="path1602" /><path
       style="fill:#5394af;stroke-width:0.0568026"
       d="m 211.74445,199.34042 c 1.05668,-0.009 2.76927,-0.009 3.80577,1e-5 1.0365,0.009 0.17195,0.0157 -1.92122,0.0157 -2.09318,0 -2.94122,-0.007 -1.88455,-0.0157 z m 9.3811,-5.09805 c 1e-5,-2.40559 0.007,-3.38141 0.0156,-2.16849 0.009,1.21292 0.009,3.18113 -1e-5,4.3738 -0.009,1.19267 -0.0156,0.20028 -0.0156,-2.20531 z m -2.39225,3.77737 c 0,-0.2968 0.01,-0.41821 0.0213,-0.26981 0.0117,0.14839 0.0117,0.39122 0,0.53962 -0.0117,0.1484 -0.0213,0.027 -0.0213,-0.26981 z m -19.68481,-0.32282 c 0.041,-0.0164 0.09,-0.0144 0.10887,0.004 0.0189,0.0189 -0.0147,0.0323 -0.0746,0.0298 -0.0662,-0.003 -0.0796,-0.0162 -0.0343,-0.0343 z m 0.85204,0 c 0.041,-0.0164 0.09,-0.0144 0.10887,0.004 0.0189,0.0189 -0.0147,0.0323 -0.0745,0.0298 -0.0662,-0.003 -0.0796,-0.0162 -0.0343,-0.0343 z m -8.654,-0.1458 c -0.0149,-0.0391 -0.0203,-2.19258 -0.0121,-4.78562 l 0.015,-4.71461 0.0139,4.75606 0.0139,4.75606 1.17865,0.0166 1.17865,0.0166 -1.18043,0.013 c -0.90178,0.01 -1.18683,-0.004 -1.20753,-0.058 z m 15.32443,0.0291 1.17833,-0.0172 0.015,-4.81286 0.015,-4.81287 -4.5e-4,4.82822 -4.6e-4,4.82822 -1.19285,0.002 -1.19286,0.002 1.17834,-0.0172 z m 6.45096,-0.11047 c 0.041,-0.0164 0.09,-0.0144 0.10887,0.004 0.0189,0.0189 -0.0147,0.0323 -0.0745,0.0298 -0.0662,-0.003 -0.0796,-0.0162 -0.0343,-0.0343 z m -0.67823,-1.76468 c -0.0707,-0.0901 -0.0686,-0.0921 0.0214,-0.0214 0.0946,0.0742 0.12471,0.12085 0.078,0.12085 -0.0118,0 -0.0565,-0.0447 -0.0994,-0.0994 z m -0.1937,-3.10994 c 1e-5,-1.49959 0.007,-2.1049 0.0163,-1.34513 0.009,0.75976 0.009,1.9867 -2e-5,2.72652 -0.009,0.73983 -0.0163,0.1182 -0.0163,-1.38139 z m 50.57758,-3.13834 c -0.0707,-0.0901 -0.0686,-0.0921 0.0214,-0.0214 0.0946,0.0742 0.12471,0.12086 0.078,0.12086 -0.0118,0 -0.0565,-0.0447 -0.0994,-0.0994 z m -0.73844,-1.24966 c -0.0707,-0.0901 -0.0686,-0.0921 0.0215,-0.0214 0.0946,0.0742 0.12471,0.12085 0.078,0.12085 -0.0118,0 -0.0565,-0.0447 -0.0994,-0.0994 z m -0.68163,-0.68163 c -0.0707,-0.0901 -0.0686,-0.0921 0.0215,-0.0214 0.0547,0.0429 0.0994,0.0876 0.0994,0.0994 0,0.0468 -0.0466,0.0167 -0.12086,-0.078 z m -53.95949,-0.56802 -0.1377,-0.15621 0.1562,0.13771 c 0.146,0.12871 0.18226,0.1747 0.13771,0.1747 -0.0102,0 -0.0805,-0.0703 -0.15621,-0.1562 z m -15.78681,0.078 c 0,-0.0118 0.0447,-0.0565 0.0994,-0.0994 0.0901,-0.0707 0.0921,-0.0686 0.0214,0.0214 -0.0742,0.0946 -0.12085,0.12471 -0.12085,0.078 z m 2.03171,-0.70136 c 0.10209,-0.0126 0.25546,-0.0124 0.34081,5.8e-4 0.0854,0.013 0.002,0.0233 -0.18562,0.023 -0.18745,-3.4e-4 -0.25728,-0.0109 -0.15519,-0.0236 z m 11.53092,0 c 0.10209,-0.0126 0.25546,-0.0124 0.34082,5.8e-4 0.0854,0.013 0.002,0.0233 -0.18563,0.023 -0.18745,-3.4e-4 -0.25728,-0.0109 -0.15519,-0.0236 z m 52.54831,-0.17184 c -0.0707,-0.0901 -0.0686,-0.0921 0.0214,-0.0214 0.0946,0.0742 0.12471,0.12085 0.078,0.12085 -0.0118,0 -0.0565,-0.0447 -0.0994,-0.0994 z m 1.05452,-0.48282 -0.16683,-0.18461 0.1846,0.16684 c 0.17209,0.15551 0.21072,0.20238 0.16684,0.20238 -0.01,0 -0.0928,-0.0831 -0.18461,-0.18461 z m 2.17982,-0.99025 c 0.041,-0.0164 0.09,-0.0144 0.10888,0.004 0.0189,0.0189 -0.0147,0.0323 -0.0746,0.0298 -0.0662,-0.003 -0.0796,-0.0162 -0.0343,-0.0343 z m -1.47686,-0.73843 c 0.041,-0.0164 0.09,-0.0144 0.10887,0.004 0.0189,0.0189 -0.0147,0.0323 -0.0746,0.0298 -0.0662,-0.003 -0.0796,-0.0162 -0.0343,-0.0343 z m 0.99221,-0.0598 c 0.14933,-0.0117 0.37939,-0.0116 0.51122,3.4e-4 0.13183,0.0119 0.01,0.0215 -0.27153,0.0213 -0.28117,-1.7e-4 -0.38903,-0.01 -0.23969,-0.0217 z m -13.03095,-0.11439 c -0.0707,-0.0901 -0.0687,-0.0921 0.0214,-0.0214 0.0547,0.0429 0.0994,0.0876 0.0994,0.0994 0,0.0467 -0.0466,0.0167 -0.12085,-0.078 z m 13.52195,-0.22721 -0.1377,-0.1562 0.1562,0.1377 c 0.146,0.12871 0.18226,0.17471 0.13771,0.17471 -0.0102,0 -0.0805,-0.0703 -0.15621,-0.15621 z m -14.51415,-0.42602 -0.10821,-0.1278 0.12781,0.10821 c 0.1201,0.10169 0.15366,0.1474 0.10821,0.1474 -0.0108,0 -0.0683,-0.0575 -0.12781,-0.12781 z m -0.99589,-0.99404 c -0.0707,-0.0901 -0.0687,-0.0921 0.0214,-0.0215 0.0547,0.0429 0.0994,0.0876 0.0994,0.0994 0,0.0468 -0.0466,0.0167 -0.12085,-0.078 z m -2.8284,-0.95618 c 0.003,-0.0662 0.0162,-0.0796 0.0343,-0.0343 0.0164,0.041 0.0144,0.09 -0.004,0.10888 -0.0189,0.0189 -0.0323,-0.0147 -0.0298,-0.0746 z m 12.37122,-0.8615 c -0.0707,-0.0901 -0.0686,-0.0921 0.0215,-0.0215 0.0946,0.0742 0.12471,0.12085 0.078,0.12085 -0.0118,0 -0.0565,-0.0447 -0.0994,-0.0994 z m -14.75245,-1.94549 c 0,-0.0781 0.0129,-0.11006 0.0287,-0.071 0.0157,0.0391 0.0157,0.10295 0,0.142 -0.0158,0.0391 -0.0287,0.007 -0.0287,-0.071 z m 0.79076,0.0237 c 0.003,-0.0662 0.0162,-0.0796 0.0343,-0.0343 0.0164,0.041 0.0144,0.09 -0.004,0.10887 -0.0189,0.0189 -0.0323,-0.0147 -0.0298,-0.0745 z m -0.79076,-1.27333 c 0,-0.0781 0.0129,-0.11005 0.0287,-0.071 0.0157,0.0391 0.0157,0.10295 0,0.14201 -0.0158,0.0391 -0.0287,0.007 -0.0287,-0.071 z m 0.79076,-0.26034 c 0.003,-0.0662 0.0162,-0.0796 0.0343,-0.0343 0.0164,0.041 0.0144,0.09 -0.004,0.10887 -0.0189,0.0189 -0.0323,-0.0147 -0.0298,-0.0745 z m -0.73844,-0.28401 c 0.003,-0.0662 0.0162,-0.0796 0.0343,-0.0343 0.0164,0.041 0.0144,0.09 -0.004,0.10887 -0.0189,0.0189 -0.0323,-0.0147 -0.0298,-0.0746 z m 1.01072,-3.70164 c -0.0707,-0.0901 -0.0687,-0.0921 0.0214,-0.0214 0.0946,0.0742 0.1247,0.12085 0.078,0.12085 -0.0118,0 -0.0565,-0.0447 -0.0994,-0.0994 z m 8.17957,-2.49931 c -0.0707,-0.0901 -0.0686,-0.0921 0.0214,-0.0215 0.0946,0.0742 0.12471,0.12085 0.078,0.12085 -0.0118,0 -0.0565,-0.0447 -0.0994,-0.0994 z m 1.24965,-0.17041 c -0.0707,-0.0901 -0.0686,-0.0921 0.0215,-0.0215 0.0547,0.0429 0.0994,0.0876 0.0994,0.0994 0,0.0468 -0.0466,0.0167 -0.12086,-0.078 z m -0.45147,-0.51122 -0.13771,-0.15621 0.15621,0.13771 c 0.0859,0.0757 0.15621,0.14603 0.15621,0.1562 0,0.0446 -0.046,0.008 -0.17471,-0.1377 z m -1.96078,-0.48282 -0.10821,-0.12781 0.1278,0.10821 c 0.0703,0.0595 0.12781,0.11703 0.12781,0.1278 0,0.0455 -0.0457,0.0119 -0.1474,-0.1082 z m 0.99514,-0.48283 -0.13771,-0.1562 0.15621,0.1377 c 0.0859,0.0757 0.1562,0.14604 0.1562,0.15621 0,0.0445 -0.046,0.008 -0.1747,-0.13771 z m -6.4854,-2.49433 c 0.0391,-0.0157 0.10296,-0.0157 0.14201,0 0.0391,0.0158 0.007,0.0286 -0.071,0.0286 -0.0781,0 -0.11006,-0.0129 -0.071,-0.0286 z m -2.03793,-0.5162 c -0.0707,-0.0901 -0.0686,-0.0921 0.0214,-0.0214 0.0547,0.0429 0.0994,0.0876 0.0994,0.0994 0,0.0468 -0.0466,0.0167 -0.12085,-0.078 z m 2.32195,-0.44944 c 0.039,-0.0158 0.10295,-0.0158 0.142,0 0.0391,0.0158 0.007,0.0286 -0.071,0.0286 -0.0781,0 -0.11006,-0.0129 -0.071,-0.0286 z m -0.90884,-0.0568 c 0.0391,-0.0158 0.10295,-0.0158 0.142,0 0.039,0.0158 0.007,0.0286 -0.071,0.0286 -0.0781,0 -0.11006,-0.0129 -0.071,-0.0286 z m -5.77518,-0.10912 c 0.003,-0.0662 0.0162,-0.0796 0.0343,-0.0343 0.0164,0.041 0.0144,0.09 -0.004,0.10887 -0.0189,0.0189 -0.0323,-0.0147 -0.0298,-0.0746 z m 0,-0.34082 c 0.003,-0.0662 0.0162,-0.0796 0.0343,-0.0343 0.0164,0.041 0.0144,0.09 -0.004,0.10888 -0.0189,0.0189 -0.0323,-0.0147 -0.0298,-0.0746 z"
       id="path1600" /><path
       style="fill:#ffb031;fill-opacity:1;stroke-width:0.0568026"
       d="m 244.16252,198.35125 -0.93509,-0.8548 -0.31456,0.0353 c -0.17301,0.0194 -1.24755,0.0506 -2.38786,0.0693 -2.31269,0.038 -2.7024,0.003 -3.58249,-0.31779 -0.84242,-0.30744 -1.4013,-0.78393 -1.65449,-1.41055 -0.13069,-0.32345 -0.13088,-0.32814 -0.14723,-3.63696 -0.0142,-2.86437 -0.004,-3.36059 0.073,-3.66377 0.24423,-0.95822 1.05734,-1.56783 2.47712,-1.85717 0.55604,-0.11331 0.71866,-0.11778 3.56862,-0.0982 l 2.98603,0.0205 0.53384,0.15422 c 1.0087,0.29138 1.62858,0.73375 1.95059,1.392 l 0.18529,0.37877 v 3.55016 3.55016 l -0.1639,0.35487 c -0.18411,0.39864 -0.52214,0.74421 -0.91436,0.93476 -0.14113,0.0686 -0.2566,0.14371 -0.2566,0.16698 0,0.0233 0.49844,0.49411 1.10765,1.04631 0.60921,0.55221 1.10765,1.01374 1.10765,1.02563 0,0.0119 -0.60708,0.0201 -1.34906,0.0183 l -1.34906,-0.003 z m -2.56321,-2.3054 c -0.003,-0.0234 -0.43795,-0.43241 -0.96719,-0.90884 l -0.96223,-0.86624 h 1.35763 1.35764 l 0.8166,0.74228 c 0.44914,0.40825 0.84765,0.75571 0.8856,0.77213 0.11136,0.0482 0.40618,-0.1984 0.54292,-0.45415 0.12539,-0.23451 0.12667,-0.26241 0.1427,-3.12013 0.011,-1.94982 -0.004,-2.95787 -0.0456,-3.11316 -0.0884,-0.32838 -0.40155,-0.64849 -0.78438,-0.80187 -0.31186,-0.12495 -0.39138,-0.1297 -2.47843,-0.14819 -1.4209,-0.0126 -2.28077,0.003 -2.52139,0.0445 -0.4719,0.0822 -0.86951,0.28627 -1.07012,0.5493 l -0.15973,0.20944 v 3.10946 3.10947 l 0.17233,0.24629 c 0.21316,0.30466 0.64144,0.5449 1.08772,0.61015 0.41473,0.0606 2.63267,0.0772 2.62598,0.0196 z m 19.57292,1.47495 c -0.63176,-0.30525 -0.95899,-0.83204 -0.96032,-1.54596 -10e-4,-0.71373 0.35224,-1.29088 0.97944,-1.59879 0.20936,-0.10278 0.36137,-0.13035 0.71983,-0.13055 0.58246,-3.4e-4 0.95181,0.15404 1.3029,0.54453 0.30771,0.34225 0.42958,0.68672 0.42958,1.21426 0,0.3401 -0.0285,0.46385 -0.17371,0.75444 -0.30359,0.60755 -0.73443,0.87226 -1.47357,0.90537 -0.44047,0.0197 -0.51276,0.007 -0.82415,-0.1433 z m 1.14046,-0.20946 c 1.19554,-0.35668 1.34915,-2.05704 0.23594,-2.61178 -0.20825,-0.10377 -0.37989,-0.14443 -0.606,-0.14353 -0.80234,0.003 -1.36631,0.57706 -1.36631,1.39035 0,0.43498 0.10337,0.71941 0.35789,0.98475 0.39277,0.40947 0.854,0.53668 1.37848,0.38021 z m -1.05474,-1.3649 v -0.99404 l 0.44022,3.4e-4 c 0.77889,5.7e-4 1.03664,0.1455 1.03664,0.58293 0,0.24914 -0.19963,0.496 -0.40111,0.496 -0.15202,0 -0.13086,0.0624 0.17256,0.50924 0.1257,0.18511 0.22855,0.35075 0.22855,0.36808 0,0.0173 -0.0744,0.0315 -0.16543,0.0315 -0.14606,0 -0.19432,-0.0498 -0.41182,-0.42532 -0.22645,-0.39092 -0.26132,-0.42538 -0.43099,-0.42602 l -0.18461,-7.2e-4 v 0.42602 c 0,0.41655 -0.003,0.42602 -0.14201,0.42602 h -0.142 z m 1.06789,-0.21017 c 0.0375,-0.0375 0.0682,-0.13462 0.0682,-0.21585 0,-0.22573 -0.1014,-0.28401 -0.49418,-0.28401 H 261.542 v 0.28401 0.28402 h 0.35786 c 0.20259,0 0.38742,-0.0296 0.42602,-0.0682 z m -39.35282,1.06475 v -0.76937 h 3.4004 c 2.06267,0 3.51999,-0.0227 3.70438,-0.0577 0.42537,-0.0807 0.76723,-0.25992 0.94853,-0.49734 0.14802,-0.19385 0.15547,-0.23568 0.17356,-0.97403 0.022,-0.89685 -0.0273,-1.11833 -0.30281,-1.36021 -0.37713,-0.33112 -0.58105,-0.35981 -2.89703,-0.40758 -2.18096,-0.045 -2.40679,-0.0687 -3.16818,-0.33312 -0.75918,-0.26362 -1.38446,-0.72802 -1.65165,-1.22669 -0.10932,-0.20404 -0.12374,-0.33438 -0.14134,-1.27806 -0.0269,-1.44025 0.0727,-1.84569 0.57708,-2.34996 0.51345,-0.51333 1.40878,-0.85662 2.46167,-0.94385 0.37002,-0.0307 2.2256,-0.0562 4.12352,-0.0566 l 3.45075,-9e-4 v 0.79295 0.79295 l -3.76317,0.0165 c -3.74379,0.0164 -3.76457,0.0171 -4.03466,0.14185 -0.40347,0.18629 -0.49258,0.41995 -0.49378,1.29471 -0.001,0.79419 0.0533,1.03678 0.29378,1.31069 0.33513,0.38168 0.34195,0.38271 2.8288,0.4271 1.27348,0.0227 2.36651,0.0673 2.52771,0.1031 0.87964,0.19529 1.56951,0.52071 2.02508,0.95524 0.49374,0.47096 0.5121,0.54797 0.49155,2.06262 -0.0167,1.22959 -0.0224,1.28595 -0.15841,1.55218 -0.28832,0.56453 -1.03372,1.07421 -2.01952,1.38088 l -0.50911,0.15838 -3.93357,0.0178 -3.93358,0.0178 z m 28.65689,0.69986 c -1.7853,-0.22479 -2.87381,-0.99095 -3.0908,-2.1755 -0.0409,-0.22314 -0.0617,-1.76362 -0.0617,-4.5584 v -4.22136 h 1.19285 1.19286 v 4.28489 c 0,2.88937 0.0197,4.33698 0.0604,4.44481 0.0949,0.25118 0.3309,0.461 0.67429,0.5995 0.31415,0.1267 0.33859,0.12762 3.88051,0.14529 l 3.56436,0.0178 v 0.76372 0.76371 l -3.50756,-0.007 c -1.92916,-0.004 -3.68649,-0.0297 -3.90518,-0.0573 z"
       id="path1598" /><path
       style="fill:#ffb031;fill-opacity:1;stroke-width:0.0568026"
       d="m 209.85163,200.15205 v -0.76462 l 3.90517,-0.0177 c 4.28967,-0.0194 4.25871,-0.0169 4.67704,-0.36895 0.25848,-0.21749 0.33579,-0.44948 0.33579,-1.00767 v -0.48465 h -2.71381 c -1.50795,0 -2.9195,-0.0258 -3.1767,-0.058 -1.4182,-0.17782 -2.46068,-0.71338 -2.88703,-1.48316 l -0.16886,-0.30488 -0.0162,-2.88273 -0.0162,-2.88273 h 1.16439 1.16438 l 0.0162,2.76913 0.0163,2.76912 0.1282,0.17973 c 0.0705,0.0989 0.24944,0.23944 0.39762,0.31242 l 0.26942,0.13268 2.91113,0.0162 2.91113,0.0162 v -3.09771 -3.0977 h 1.16445 1.16445 l -0.001,4.4732 -0.001,4.4732 -0.13038,0.31694 c -0.0717,0.17431 -0.20222,0.41112 -0.29003,0.52624 -0.23458,0.30755 -0.90282,0.72953 -1.43248,0.90459 -0.95795,0.3166 -1.10664,0.32553 -5.42258,0.32553 h -3.96874 z m -10.82089,-2.45227 c -0.67179,-0.10361 -1.10716,-0.35909 -1.4147,-0.83017 -0.10712,-0.16409 -1.04679,-2.2025 -2.08816,-4.5298 l -1.89339,-4.23146 -0.0145,4.72848 -0.0145,4.72849 h -1.16413 -1.16412 v -4.88827 c 0,-3.5245 0.0184,-4.96139 0.066,-5.15036 0.0457,-0.18132 0.14632,-0.3448 0.32662,-0.53048 0.21621,-0.22265 0.34289,-0.29555 0.74344,-0.42777 0.43384,-0.14322 0.56349,-0.15966 1.27806,-0.16211 0.74537,-0.003 0.81545,0.007 1.1176,0.1484 0.42518,0.19932 0.7863,0.54004 0.99863,0.94221 0.0949,0.17971 0.93229,2.09046 1.86092,4.24611 0.92863,2.15566 1.71345,3.9672 1.74403,4.02564 0.0448,0.0857 0.39515,-0.65729 1.80786,-3.83417 0.96373,-2.16724 1.836,-4.10658 1.93838,-4.30965 0.23609,-0.46831 0.63863,-0.87403 1.05601,-1.06435 0.26862,-0.12248 0.43272,-0.1529 0.93422,-0.17315 0.96353,-0.0389 1.85086,0.20629 2.24355,0.61997 0.37102,0.39085 0.35743,0.17714 0.35743,5.6233 v 4.93468 h -1.16413 -1.16412 l -0.0145,-4.71932 -0.0145,-4.71932 -1.69856,3.79628 c -2.21618,4.95316 -2.23691,4.99615 -2.54617,5.28122 -0.34463,0.31766 -0.76972,0.46645 -1.42018,0.49708 -0.28962,0.0136 -0.60326,0.013 -0.69698,-0.001 z m 63.91582,-8.07901 c -0.62589,-0.5718 -1.45767,-1.10942 -2.58226,-1.66901 -1.83351,-0.91236 -2.83176,-1.7429 -3.31176,-2.75535 -0.0926,-0.19535 -0.16839,-0.38007 -0.16839,-0.41051 0,-0.10016 0.24629,-0.21794 0.93724,-0.44823 0.83041,-0.27676 1.65542,-0.40497 2.60601,-0.40497 0.59603,0 0.71694,-0.0142 0.71694,-0.0843 0,-0.15095 -0.29929,-0.41354 -1.02244,-0.89704 -0.39052,-0.2611 -1.03073,-0.6915 -1.4227,-0.95644 -0.59108,-0.39953 -0.84789,-0.53206 -1.50527,-0.77683 -0.43593,-0.16232 -0.97153,-0.34933 -1.19022,-0.41559 -0.53558,-0.16227 -0.89187,-0.34963 -1.07203,-0.56373 -0.26882,-0.31948 -0.60212,-0.93511 -1.11114,-2.05236 -0.27523,-0.60413 -0.69257,-1.5075 -0.92742,-2.00749 -0.23484,-0.5 -0.54782,-1.21571 -0.6955,-1.59048 -0.412,-1.04549 -1.19281,-2.33847 -2.10943,-3.49311 -0.53227,-0.67049 -1.92915,-2.05603 -2.57646,-2.55555 -1.2601,-0.97239 -2.61878,-1.7489 -3.67617,-2.101 -0.44243,-0.14733 -0.67143,-0.18421 -1.47687,-0.23787 -1.07024,-0.0713 -1.12713,-0.0902 -1.69167,-0.56365 -0.5724,-0.47999 -2.3706,-1.30143 -2.84893,-1.30143 -0.18384,0 -0.4562,0.14456 -0.52914,0.28086 -0.18885,0.35288 0.0568,0.96595 0.72522,1.80961 1.00171,1.26442 1.28825,1.78959 1.74457,3.19755 0.61012,1.88246 0.97859,2.67535 1.49259,3.2118 0.62443,0.65169 0.64846,0.8254 0.26607,1.92345 -0.42001,1.20608 -0.4858,1.5336 -0.5191,2.58451 -0.0217,0.68629 -0.006,1.08934 0.0573,1.50527 0.14735,0.96173 0.54272,2.03894 0.89606,2.44137 0.18306,0.20849 0.48327,0.35774 0.5615,0.27915 0.0278,-0.0279 0.0923,-0.39587 0.1434,-0.81763 0.18202,-1.50364 0.328,-1.95264 0.86575,-2.66288 0.20391,-0.26932 0.38115,-0.50171 0.39387,-0.51642 0.0372,-0.043 0.12584,0.12318 0.19071,0.35761 0.1081,0.39066 0.73029,1.75399 1.17108,2.56608 0.95287,1.75551 1.85243,3.05566 2.62336,3.79157 0.25364,0.24212 0.43784,0.44022 0.40934,0.44022 -0.0702,0 -0.34533,-0.22673 -0.85765,-0.70674 -0.23535,-0.2205 -0.67577,-0.61282 -0.97873,-0.87182 -0.61688,-0.52737 -1.25497,-1.22506 -1.56683,-1.71319 -0.11412,-0.17862 -0.36001,-0.63574 -0.54642,-1.01582 -0.1864,-0.38008 -0.35592,-0.69106 -0.37671,-0.69106 -0.0357,0 -0.10149,0.33977 -0.30766,1.58932 -0.11048,0.6696 -0.27117,0.96642 -0.6127,1.13175 -0.54432,0.2635 -1.12341,0.0571 -1.63929,-0.58439 -1.06738,-1.32718 -1.50269,-3.76865 -1.04434,-5.85725 0.19455,-0.88652 0.35273,-1.4719 0.57716,-2.13592 0.0194,-0.0572 -0.0781,-0.21542 -0.26245,-0.42602 -0.66333,-0.75783 -1.34407,-2.28012 -2.01679,-4.50998 -0.10951,-0.36299 -0.60421,-1.12939 -1.30161,-2.01649 -0.76673,-0.97528 -1.05124,-1.65883 -0.93907,-2.25616 0.0948,-0.50459 0.3586,-0.87161 0.79285,-1.1029 0.15716,-0.0837 0.31781,-0.10532 0.76684,-0.10316 0.48898,0.002 0.64301,0.0285 1.10696,0.18805 0.71826,0.24699 1.66138,0.74336 2.1397,1.12615 0.21379,0.17108 0.43345,0.33548 0.48814,0.36532 0.0547,0.0298 0.43403,0.0782 0.84298,0.1074 0.806,0.0576 1.96048,0.32379 2.56322,0.59099 0.64317,0.28513 2.17574,1.28648 3.14914,2.0576 1.55718,1.23359 2.66709,2.45833 3.85382,4.25255 0.61097,0.92372 0.72022,1.1309 1.10517,2.09579 0.72498,1.81721 2.35432,5.17385 2.61989,5.39731 0.096,0.0808 0.20073,0.14684 0.23278,0.14684 0.0759,0 1.2535,0.51963 1.8359,0.8101 1.13062,0.56389 3.32682,2.26027 3.99023,3.08212 0.22642,0.28049 0.40518,0.54738 0.39724,0.59309 -0.0213,0.12306 -0.7985,0.33056 -1.71775,0.45866 -0.43738,0.061 -1.03672,0.17487 -1.33186,0.25315 -0.29515,0.0783 -0.57632,0.14272 -0.62483,0.14319 -0.21683,0.002 -0.2522,0.0921 -0.12018,0.30576 0.17174,0.27788 0.47018,0.51187 1.32296,1.03725 0.86574,0.53337 1.63565,1.15318 2.10554,1.69506 0.18964,0.21869 0.50352,0.56377 0.69753,0.76684 0.194,0.20307 0.40516,0.49063 0.46925,0.63903 0.0641,0.14839 0.10461,0.26981 0.09,0.26981 -0.0146,0 -0.13454,-0.0987 -0.26661,-0.2194 z m -20.33434,-20.35313 c -0.1095,-0.23701 -0.34395,-0.60651 -0.52098,-0.82109 -0.30912,-0.37468 -0.31671,-0.39163 -0.19142,-0.42711 0.3356,-0.095 0.62088,-0.0518 0.84867,0.12862 0.22735,0.18007 0.4465,0.53169 0.44593,0.7155 -6.4e-4,0.20266 -0.12148,0.53087 -0.25084,0.68125 l -0.13225,0.15376 z"
       id="path1596" /></g></svg>
