<?xml version="1.0" encoding="UTF-8" standalone="no"?>
<svg
   fill="none"
   height="1670.0281"
   width="2992.5503"
   viewBox="0 0 169.98453 94.544965"
   version="1.1"
   id="svg8"
   sodipodi:docname="html-1 (1).svg"
   xml:space="preserve"
   inkscape:export-filename="Icones\html.svg"
   inkscape:export-xdpi="96"
   inkscape:export-ydpi="96"
   xmlns:inkscape="http://www.inkscape.org/namespaces/inkscape"
   xmlns:sodipodi="http://sodipodi.sourceforge.net/DTD/sodipodi-0.dtd"
   xmlns="http://www.w3.org/2000/svg"
   xmlns:svg="http://www.w3.org/2000/svg"><defs
     id="defs12" /><sodipodi:namedview
     id="namedview10"
     pagecolor="#ffffff"
     bordercolor="#000000"
     borderopacity="0.25"
     inkscape:showpageshadow="2"
     inkscape:pageopacity="0.0"
     inkscape:pagecheckerboard="0"
     inkscape:deskcolor="#d1d1d1"
     showgrid="false" /><g
     id="g1175"
     transform="matrix(4.6838646,0,0,4.6838646,-983.63143,-555.79244)"
     inkscape:export-filename="Icones\phpMyAdmin.svg"
     inkscape:export-xdpi="96"
     inkscape:export-ydpi="96"><path
       style="fill:#f3d3a2;stroke-width:0.0568026"
       d="m 224.6702,137.91737 c 0.20951,-0.0109 0.56737,-0.011 0.79523,-1.7e-4 0.22787,0.0108 0.0565,0.0197 -0.38093,0.0198 -0.43738,1.2e-4 -0.62382,-0.009 -0.4143,-0.0196 z m 0.59891,-0.44998 c 0.039,-0.0157 0.10295,-0.0157 0.14201,0 0.0391,0.0158 0.007,0.0286 -0.071,0.0286 -0.0781,0 -0.11005,-0.0129 -0.071,-0.0286 z m 7.61154,0 c 0.0391,-0.0157 0.10296,-0.0157 0.14201,0 0.0391,0.0158 0.007,0.0286 -0.071,0.0286 -0.0781,0 -0.11006,-0.0129 -0.071,-0.0286 z m 5.92616,-0.0523 c 0.003,-0.0662 0.0162,-0.0796 0.0343,-0.0343 0.0164,0.041 0.0144,0.09 -0.004,0.10887 -0.0189,0.0189 -0.0323,-0.0147 -0.0298,-0.0746 z m -5.32973,-0.57558 c 0.0859,-0.013 0.2265,-0.013 0.31241,0 0.0859,0.013 0.0156,0.0237 -0.1562,0.0237 -0.17183,0 -0.24212,-0.0106 -0.15621,-0.0237 z m -9.03263,-0.18652 c 0,-0.10935 0.0117,-0.15408 0.026,-0.0994 0.0143,0.0547 0.0143,0.14414 0,0.19881 -0.0143,0.0547 -0.026,0.01 -0.026,-0.0994 z m 20.44023,-1.16919 c 0.003,-0.0662 0.0162,-0.0796 0.0343,-0.0343 0.0164,0.041 0.0144,0.09 -0.004,0.10887 -0.0189,0.0189 -0.0323,-0.0147 -0.0298,-0.0745 z m 0,-0.22721 c 0.003,-0.0662 0.0162,-0.0796 0.0343,-0.0343 0.0164,0.041 0.0144,0.09 -0.004,0.10887 -0.0189,0.0189 -0.0323,-0.0147 -0.0298,-0.0745 z m -0.95485,-0.68786 c 0.0553,-0.0144 0.13195,-0.0135 0.17041,0.002 0.0385,0.0156 -0.007,0.0273 -0.10048,0.0262 -0.0937,-10e-4 -0.12519,-0.0139 -0.0699,-0.0283 z"
       id="path1189" /><path
       style="fill:#ffcf53;fill-opacity:1;stroke-width:0.0568026"
       d="m 227.44181,138.81147 c -0.0591,-0.0382 0.0542,-0.0559 0.36921,-0.0579 0.79957,-0.005 1.28572,-0.12599 2.02014,-0.50269 0.76611,-0.39295 1.14708,-0.51865 1.57198,-0.51865 0.35788,0 0.81008,0.10259 0.81008,0.18378 0,0.0318 -0.0562,0.0406 -0.1278,0.0201 -0.293,-0.0838 -0.89735,-0.1031 -1.16,-0.037 -0.15085,0.038 -0.60656,0.23437 -1.0127,0.43647 -0.55747,0.27741 -0.8498,0.38722 -1.19285,0.4481 -0.52714,0.0935 -1.1552,0.1072 -1.27806,0.0278 z m -11.75365,-0.54436 c 0.003,-0.0662 0.0162,-0.0796 0.0343,-0.0343 0.0164,0.041 0.0144,0.09 -0.004,0.10887 -0.0189,0.0189 -0.0323,-0.0147 -0.0298,-0.0746 z m 11.92406,0.0495 c -0.32839,-0.12124 -0.74403,-0.34703 -0.69483,-0.37744 0.0327,-0.0202 0.22156,0.04 0.41973,0.13372 0.53698,0.25403 1.1622,0.20928 1.95126,-0.13968 0.35022,-0.15489 0.42553,-0.17178 0.42553,-0.0954 0,0.066 -0.80818,0.37813 -1.18145,0.45625 -0.31333,0.0656 -0.77321,0.0769 -0.92024,0.0226 z m 8.70499,-6.5e-4 c -0.3727,-0.0463 -0.16936,-0.10705 0.36922,-0.11035 0.69456,-0.004 1.15025,-0.11684 1.80348,-0.44562 0.28117,-0.14152 0.56234,-0.25548 0.62482,-0.25324 0.21013,0.008 -1.06555,0.61339 -1.47686,0.70141 -0.44071,0.0943 -1.0372,0.143 -1.32066,0.1078 z m -8.09981,-0.67914 c -0.0968,-0.0968 0.92506,-0.62143 1.6818,-0.86338 0.62084,-0.1985 0.60995,-0.19623 0.60995,-0.12718 0,0.0276 -0.22135,0.11912 -0.49187,0.20347 -0.51085,0.15927 -1.28259,0.5034 -1.58642,0.7074 -0.0965,0.0648 -0.19252,0.10063 -0.21346,0.0797 z m -16.63416,-0.17063 c 0.041,-0.0164 0.09,-0.0144 0.10887,0.004 0.0189,0.0189 -0.0147,0.0323 -0.0746,0.0298 -0.0662,-0.003 -0.0796,-0.0162 -0.0343,-0.0343 z m 5.68026,0 c 0.041,-0.0164 0.09,-0.0144 0.10887,0.004 0.0189,0.0189 -0.0147,0.0323 -0.0745,0.0298 -0.0662,-0.003 -0.0796,-0.0162 -0.0343,-0.0343 z m 22.39076,-0.17421 c 5e-5,-0.0489 0.10619,-0.071 0.34091,-0.071 0.44296,0 0.44288,0.0977 -1.1e-4,0.12276 -0.24517,0.0138 -0.34089,-6.9e-4 -0.34081,-0.0518 z m -12.38153,-0.17211 -0.13046,-0.10564 0.15397,-0.96167 c 0.0847,-0.52892 0.16648,-1.01459 0.18177,-1.07927 0.0249,-0.10523 0.10199,-0.12631 0.73423,-0.20066 0.38854,-0.0457 0.70643,-0.0777 0.70643,-0.0712 0,0.0231 -1.4348,2.43493 -1.47486,2.47919 -0.0223,0.0247 -0.0993,-0.003 -0.17108,-0.0608 z m -16.26106,-0.16619 c 0.0703,-0.0135 0.18531,-0.0135 0.25561,0 0.0703,0.0135 0.0128,0.0246 -0.12781,0.0246 -0.14059,0 -0.1981,-0.0111 -0.1278,-0.0246 z m 5.68025,0 c 0.0703,-0.0135 0.18532,-0.0135 0.25561,0 0.0703,0.0135 0.0128,0.0246 -0.1278,0.0246 -0.14059,0 -0.1981,-0.0111 -0.12781,-0.0246 z m 21.28676,-0.0167 c 0.0193,-0.0312 0.0464,-0.0568 0.0602,-0.0568 0.0138,0 0.025,0.0256 0.025,0.0568 0,0.0312 -0.0271,0.0568 -0.0602,0.0568 -0.0331,0 -0.0443,-0.0256 -0.025,-0.0568 z m -1.34906,-0.18415 c -0.17964,-0.0308 -0.32661,-0.0786 -0.32661,-0.10631 0,-0.0649 0.0574,-0.0635 0.49237,0.0123 0.19782,0.0344 0.35967,0.0856 0.35967,0.1136 0,0.0595 -0.0817,0.0564 -0.52543,-0.0196 z m -7.93816,-0.15845 c 0,-0.0303 0.0383,-0.055 0.0852,-0.055 0.0469,0 0.0852,0.0101 0.0852,0.0223 0,0.0123 -0.0383,0.037 -0.0852,0.055 -0.0469,0.018 -0.0852,0.008 -0.0852,-0.0223 z m 6.40449,-0.04 c -0.14839,-0.0117 -0.26981,-0.0454 -0.26981,-0.075 0,-0.0594 0.3934,-0.0735 0.53498,-0.0192 0.0884,0.0339 0.1304,0.14568 0.0472,0.12569 -0.0234,-0.006 -0.16402,-0.0198 -0.31242,-0.0315 z m -3.67796,-0.057 c 0,-0.0584 0.39887,-0.14614 0.4467,-0.0983 0.0478,0.0478 -0.0312,0.0877 -0.24086,0.12172 -0.12163,0.0197 -0.20584,0.0102 -0.20584,-0.0234 z m 1.91708,-0.0573 c -0.34236,-0.0102 -0.61062,-0.0424 -0.61062,-0.0731 0,-0.0598 1.06729,-0.0777 1.21661,-0.0204 0.0879,0.0337 0.13135,0.14768 0.0472,0.12386 -0.0234,-0.007 -0.31738,-0.0203 -0.65323,-0.0303 z m 5.0832,-0.0613 c -0.27342,-0.0668 -0.34977,-0.10751 -0.33026,-0.17618 0.014,-0.0491 0.0561,-0.28743 0.0936,-0.52955 l 0.0682,-0.44022 h 0.30836 c 0.5499,0 0.60282,0.1012 0.46546,0.88999 -0.0704,0.40438 -0.0438,0.39313 -0.60543,0.25596 z m -12.18884,-0.31943 c -0.0834,-0.17042 -0.17294,-0.46501 -0.19887,-0.65463 -0.0525,-0.38376 -0.0796,-0.35559 0.40497,-0.42057 0.21455,-0.0288 0.21491,-0.0285 0.18498,0.15253 -0.15786,0.95475 -0.2011,1.19429 -0.2188,1.21199 -0.0113,0.0113 -0.0888,-0.11889 -0.17228,-0.28932 z m 13.61871,0.12492 c 0.0202,-0.0703 0.0505,-0.34507 0.0675,-0.61062 0.0269,-0.42 0.0159,-0.50646 -0.0842,-0.66445 -0.20172,-0.3184 -0.46409,-0.358 -2.37181,-0.358 h -1.66279 l -0.0338,0.18461 c -0.0186,0.10153 -0.0648,0.3891 -0.1028,0.63903 l -0.069,0.45442 -0.3116,-0.0201 c -0.17137,-0.011 -0.31676,-0.0247 -0.32308,-0.0304 -0.006,-0.006 0.0545,-0.42424 0.13509,-0.93014 l 0.14657,-0.91981 0.17733,-0.0303 c 0.42435,-0.0724 10.85414,-1.32801 10.8732,-1.30895 0.0623,0.0623 -0.29361,0.15769 -0.96589,0.25878 -1.43674,0.21605 -2.48866,0.62384 -3.41512,1.32393 -0.47343,0.35775 -0.51844,0.37892 -0.80561,0.37892 -0.34097,0 -0.33481,-0.008 -0.39909,0.51122 -0.0618,0.49918 -0.57846,1.24966 -0.86029,1.24966 -0.0172,0 -0.0148,-0.0575 0.005,-0.12781 z m 1.87117,-2.07329 c 0.016,-0.0859 0.0447,-0.25206 0.0639,-0.36922 l 0.0348,-0.21301 h -0.42476 c -0.47261,0 -0.45208,-0.0185 -0.52084,0.46863 l -0.0381,0.26981 h 0.42796 c 0.42194,0 0.42836,-0.002 0.45704,-0.15621 z m -29.60971,1.94075 c 0.003,-0.0662 0.0162,-0.0796 0.0343,-0.0343 0.0164,0.041 0.0144,0.09 -0.004,0.10887 -0.0189,0.0189 -0.0323,-0.0147 -0.0298,-0.0746 z m 24.93184,0.0286 c -0.10934,-0.0217 -0.29732,-0.0567 -0.41772,-0.0779 l -0.2189,-0.0385 0.0375,-0.26613 c 0.0682,-0.48319 0.0476,-0.46494 0.52426,-0.46494 h 0.42874 l -0.0383,0.30662 c -0.069,0.55192 -0.0888,0.58584 -0.3156,0.54087 z m -21.52369,-0.2558 c 0.003,-0.0662 0.0162,-0.0796 0.0343,-0.0343 0.0164,0.041 0.0144,0.09 -0.004,0.10887 -0.0189,0.0189 -0.0323,-0.0147 -0.0298,-0.0746 z m 15.70555,-0.0182 c -0.0377,-0.0632 -0.37796,-1.32628 -0.3614,-1.34165 0.009,-0.008 0.81071,-0.1138 1.78147,-0.23421 l 1.765,-0.21892 -0.0442,0.22721 c -0.0243,0.12496 -0.0454,0.24309 -0.0467,0.26251 -10e-4,0.0194 -0.27725,0.0474 -0.6131,0.0622 -0.39434,0.0174 -0.69111,0.0612 -0.83784,0.12367 -0.29907,0.12735 -0.62982,0.45229 -0.8011,0.78703 -0.0759,0.1484 -0.16957,0.27134 -0.2081,0.2732 -0.0385,0.002 -0.19237,0.0235 -0.34188,0.0481 -0.14951,0.0246 -0.28094,0.0295 -0.29207,0.0108 z m -1.9193,-0.30372 c 0.0915,-0.16401 0.24867,-0.44519 0.34915,-0.62483 0.10049,-0.17963 0.21601,-0.32661 0.25673,-0.32661 0.0466,0 0.12917,0.2201 0.22304,0.5947 0.082,0.32708 0.14902,0.60825 0.14902,0.62483 0,0.0166 -0.25749,0.0301 -0.5722,0.0301 h -0.57219 z m 4.17299,0.19695 -0.63912,-0.0161 0.0886,-0.13525 c 0.13988,-0.21348 0.42161,-0.31545 0.87159,-0.31545 0.43554,0 0.43915,0.003 0.35391,0.34082 l -0.0359,0.142 z m -21.55293,-0.61917 c 0.041,-0.0164 0.09,-0.0144 0.10887,0.004 0.0189,0.0189 -0.0147,0.0323 -0.0746,0.0298 -0.0662,-0.003 -0.0796,-0.0162 -0.0343,-0.0343 z m 2.84013,0 c 0.041,-0.0164 0.09,-0.0144 0.10887,0.004 0.0189,0.0189 -0.0147,0.0323 -0.0746,0.0298 -0.0662,-0.003 -0.0796,-0.0162 -0.0343,-0.0343 z m 11.26934,-0.99784 c 0.69225,-2.05344 4.22381,-12.18693 4.23524,-12.15264 0.0216,0.0646 -0.77912,11.842 -0.80695,11.86983 -0.0278,0.0278 -3.01242,0.35011 -3.26155,0.35221 -0.12794,0.001 -0.1828,-0.0218 -0.16674,-0.0694 z m 3.71194,-0.73843 c 0.0134,-0.10154 0.18144,-2.76629 0.37336,-5.92167 0.19193,-3.15538 0.35826,-5.74771 0.36963,-5.76073 0.0114,-0.013 0.0374,-0.007 0.0577,0.0134 0.0357,0.0357 -0.64147,11.46559 -0.69471,11.7258 -0.0408,0.19951 -0.13337,0.14993 -0.10603,-0.0568 z m 0.57187,0.0568 c 0.0232,-0.0391 0.2511,-0.4033 0.50653,-0.80944 1.53678,-2.44346 2.90739,-5.13859 4.00086,-7.86715 0.50694,-1.26497 1.34988,-3.75185 1.65581,-4.88502 0.16193,-0.59982 0.19383,-0.67477 0.20548,-0.48283 0.0177,0.29179 -0.86538,13.7647 -0.90481,13.80413 -0.0317,0.0317 -4.69881,0.31064 -5.20441,0.31106 -0.22589,1.7e-4 -0.291,-0.0176 -0.25946,-0.0708 z m 5.7798,-0.59643 c 0.0198,-0.27336 0.20405,-3.56436 0.40945,-7.31333 0.2054,-3.74897 0.39698,-6.84059 0.42575,-6.87027 0.0322,-0.0332 0.0523,0.014 0.0523,0.12307 0,0.13452 0.96858,1.76264 4.03341,6.7799 2.21838,3.63158 4.0232,6.61309 4.01072,6.62557 -0.0125,0.0125 -0.11583,-0.13062 -0.22966,-0.31801 -0.1941,-0.31951 -0.22716,-0.34627 -0.53156,-0.43016 -1.38875,-0.38272 -2.99181,-1.22231 -4.1114,-2.15331 -0.33543,-0.27892 -0.43431,-0.41328 -0.86624,-1.17695 l -0.48759,-0.86208 -1.7e-4,-0.94408 c -3.3e-4,-1.48446 -0.1692,-2.95345 -0.49056,-4.26704 -0.26867,-1.09819 -0.40522,-1.44649 -0.86045,-2.19479 l -0.4381,-0.72013 -0.0429,0.33561 c -0.0236,0.18459 -0.19556,3.19846 -0.3821,6.6975 -0.37776,7.0855 -0.38427,7.18552 -0.46758,7.18552 -0.0394,0 -0.0472,-0.16668 -0.0233,-0.49702 z m 1.76732,-1.93129 c 5.1e-4,-1.77679 -0.019,-2.35987 -0.10138,-3.02473 -0.14632,-1.18154 -0.34916,-2.13737 -0.63005,-2.96889 -0.13473,-0.39885 -0.23324,-0.71346 -0.21891,-0.69913 0.0656,0.0656 4.77161,8.4135 4.75359,8.43227 -0.0228,0.0237 -3.50997,0.45904 -3.68964,0.46059 -0.11249,9.8e-4 -0.11422,-0.0324 -0.11361,-2.20011 z m -4.78941,-8.90818 c -0.19691,-0.15573 -0.29638,-0.19443 -0.49985,-0.19443 -0.13971,0 -0.32455,0.0365 -0.41076,0.0811 -0.17958,0.0929 -0.32707,0.0354 -0.27271,-0.10629 0.0487,-0.12687 0.38241,-0.25878 0.65472,-0.25878 0.13467,0 0.34388,0.0633 0.52724,0.15954 l 0.30399,0.15954 0.3047,-0.15954 c 0.20015,-0.1048 0.3908,-0.15954 0.55565,-0.15954 0.29652,0 0.63189,0.12718 0.68239,0.25878 0.0544,0.14167 -0.0931,0.19916 -0.27271,0.10629 -0.31479,-0.16278 -0.74597,-0.0817 -1.12149,0.21099 -0.0745,0.0581 -0.15119,0.1036 -0.17041,0.10119 -0.0192,-0.002 -0.14556,-0.0919 -0.28076,-0.19881 z m -0.97973,-1.47788 c -0.22469,-0.24051 -0.43223,-0.32146 -0.72708,-0.28357 -0.14447,0.0186 -0.32657,0.0401 -0.40467,0.0478 -0.21312,0.021 -0.17831,-0.13769 0.0568,-0.25896 0.29791,-0.15367 0.70815,-0.10628 1.0444,0.12065 0.30886,0.20845 0.3346,0.21351 0.43971,0.0865 0.12135,-0.14664 0.50899,-0.3008 0.75959,-0.30208 0.26666,-0.001 0.62483,0.16068 0.62483,0.28268 0,0.0885 -0.029,0.0897 -0.55334,0.0229 -0.22428,-0.0285 -0.31055,-0.0101 -0.51575,0.11013 -0.13554,0.0794 -0.27947,0.18423 -0.31986,0.23289 -0.10714,0.12911 -0.24815,0.10857 -0.40463,-0.0589 z"
       id="path1187" /><path
       style="fill:#f9c77a;stroke-width:0.0568026"
       d="m 219.19274,137.46335 c 0.1336,-0.012 0.33809,-0.0118 0.45442,4e-4 0.11633,0.0122 0.007,0.022 -0.24292,0.0218 -0.24993,-2.2e-4 -0.34511,-0.0102 -0.2115,-0.0222 z m 1.87298,6e-5 c 0.13278,-0.012 0.35005,-0.012 0.48282,0 0.13278,0.0119 0.0241,0.0217 -0.24141,0.0217 -0.26555,0 -0.37419,-0.01 -0.24141,-0.0217 z m 1.90289,2.2e-4 c 0.11715,-0.0122 0.30886,-0.0122 0.42601,0 0.11716,0.0123 0.0213,0.0223 -0.213,0.0223 -0.23432,0 -0.33017,-0.01 -0.21301,-0.0223 z m 2.66972,0 c 0.11715,-0.0122 0.30886,-0.0122 0.42602,0 0.11715,0.0123 0.0213,0.0223 -0.21301,0.0223 -0.23431,0 -0.33017,-0.01 -0.21301,-0.0223 z m 1.90438,-2.8e-4 c 0.13361,-0.012 0.33809,-0.0118 0.45442,4e-4 0.11633,0.0122 0.007,0.022 -0.24291,0.0218 -0.24993,-2.2e-4 -0.34511,-0.0102 -0.21151,-0.0222 z m 3.40666,6e-5 c 0.13277,-0.012 0.35004,-0.012 0.48282,0 0.13277,0.0119 0.0241,0.0217 -0.24141,0.0217 -0.26556,0 -0.37419,-0.01 -0.24141,-0.0217 z m 2.49931,-5.9e-4 c 0.2265,-0.0108 0.59714,-0.0108 0.82364,0 0.2265,0.0108 0.0412,0.0196 -0.41182,0.0196 -0.453,0 -0.63832,-0.009 -0.41182,-0.0196 z m 2.07329,8e-4 c 0.11716,-0.0123 0.30887,-0.0123 0.42602,0 0.11716,0.0122 0.0213,0.0223 -0.21301,0.0223 -0.23431,0 -0.33016,-0.01 -0.21301,-0.0223 z m 1.55657,-0.001 c -0.0145,-0.0234 0.10538,-0.0352 0.26646,-0.0262 0.48418,0.0271 0.54321,0.0529 0.14001,0.0611 -0.20903,0.004 -0.39195,-0.0114 -0.40647,-0.0349 z m 1.82674,0.004 c 0.041,-0.0164 0.09,-0.0144 0.10887,0.004 0.0189,0.0189 -0.0147,0.0323 -0.0746,0.0298 -0.0662,-0.003 -0.0796,-0.0162 -0.0343,-0.0343 z m 0.40826,0.0169 c 0,-0.0121 0.0753,-0.033 0.16741,-0.0465 0.0921,-0.0135 0.15447,-0.004 0.13866,0.022 -0.0281,0.0455 -0.30607,0.0678 -0.30607,0.0246 z m 1.20706,-0.0194 c 0.11715,-0.0122 0.30886,-0.0122 0.42602,0 0.11715,0.0123 0.0213,0.0223 -0.21301,0.0223 -0.23431,0 -0.33017,-0.01 -0.21301,-0.0223 z m 1.504,4e-4 c 0.10084,-0.0126 0.27977,-0.0128 0.39762,-4.5e-4 0.11785,0.0123 0.0353,0.0226 -0.18334,0.0228 -0.21869,2.3e-4 -0.31512,-0.01 -0.21428,-0.0223 z m 1.93129,0 c 0.10083,-0.0126 0.27976,-0.0128 0.39761,-4.5e-4 0.11786,0.0123 0.0353,0.0226 -0.18334,0.0228 -0.21869,2.3e-4 -0.31511,-0.01 -0.21427,-0.0223 z m -14.54019,-1.64817 c 0.16401,-0.0115 0.43241,-0.0115 0.59642,0 0.16402,0.0115 0.0298,0.0209 -0.29821,0.0209 -0.32803,0 -0.46223,-0.009 -0.29821,-0.0209 z m 9.67512,-0.27527 c 0.003,-0.0662 0.0162,-0.0796 0.0343,-0.0343 0.0164,0.041 0.0144,0.09 -0.004,0.10888 -0.0189,0.0189 -0.0323,-0.0147 -0.0298,-0.0746 z m 2.40962,-0.93251 c -0.0926,-0.0398 -0.0958,-0.0496 -0.0175,-0.0528 0.0528,-0.002 0.11185,0.0216 0.13116,0.0528 0.0404,0.0653 0.0384,0.0653 -0.11361,0 z m -16.51661,-0.041 c 0.10084,-0.0126 0.27977,-0.0128 0.39762,-4.6e-4 0.11785,0.0123 0.0353,0.0226 -0.18334,0.0228 -0.21869,2.2e-4 -0.31512,-0.01 -0.21428,-0.0224 z m 1.93129,0 c 0.10083,-0.0126 0.27976,-0.0128 0.39762,-4.6e-4 0.11785,0.0123 0.0353,0.0226 -0.18335,0.0228 -0.21869,2.2e-4 -0.31511,-0.01 -0.21427,-0.0224 z m 12.04696,0.002 c 0.041,-0.0164 0.09,-0.0144 0.10887,0.004 0.0189,0.0189 -0.0147,0.0323 -0.0746,0.0298 -0.0662,-0.003 -0.0796,-0.0162 -0.0343,-0.0343 z m 3.71453,-0.003 c 0.20951,-0.0109 0.56737,-0.011 0.79524,-1.7e-4 0.22786,0.0108 0.0564,0.0197 -0.38094,0.0198 -0.43738,1.2e-4 -0.62381,-0.009 -0.4143,-0.0196 z"
       id="path1185" /><path
       style="fill:#a6adce;stroke-width:0.0568026"
       d="m 210.00429,138.25765 c 5.8e-4,-0.0668 0.015,-0.0772 0.0438,-0.0318 0.0236,0.0372 0.183,0.0772 0.35415,0.0889 l 0.31117,0.0213 -0.35501,0.0105 c -0.30454,0.009 -0.3549,-0.004 -0.35415,-0.0889 z m 5.89341,0.0582 c 0.1021,-0.0127 0.25546,-0.0124 0.34082,5.7e-4 0.0854,0.013 0.002,0.0233 -0.18563,0.023 -0.18745,-3.4e-4 -0.25728,-0.0109 -0.15519,-0.0236 z m -5.20816,-0.33279 c 0.003,-0.0662 0.0162,-0.0796 0.0343,-0.0343 0.0164,0.041 0.0144,0.09 -0.004,0.10888 -0.0189,0.0189 -0.0323,-0.0147 -0.0298,-0.0746 z m 0.26406,-0.51908 c 0.10083,-0.0126 0.27976,-0.0128 0.39761,-4.6e-4 0.11786,0.0123 0.0353,0.0226 -0.18334,0.0228 -0.21869,2.3e-4 -0.31511,-0.01 -0.21427,-0.0224 z m 2.34313,2.8e-4 c 0.17114,-0.0126 0.33285,-0.0533 0.35934,-0.0905 0.0336,-0.0472 0.0412,-0.0418 0.0251,0.0176 -0.0169,0.0627 -0.1117,0.0866 -0.35934,0.0905 l -0.33633,0.005 0.31118,-0.0229 z m 1.34487,-0.002 c -0.0145,-0.0234 0.0926,-0.035 0.23806,-0.0256 0.41483,0.0266 0.46514,0.0544 0.11154,0.0616 -0.1778,0.004 -0.33511,-0.0126 -0.3496,-0.036 z m 1.99225,0.002 c 0.10084,-0.0126 0.27977,-0.0128 0.39762,-4.6e-4 0.11785,0.0123 0.0353,0.0226 -0.18334,0.0228 -0.21869,2.3e-4 -0.31512,-0.01 -0.21428,-0.0224 z m -4.41513,-0.20399 c 0,-0.01 0.0831,-0.0928 0.18461,-0.18461 l 0.18461,-0.16683 -0.16684,0.1846 c -0.15551,0.17209 -0.20238,0.21072 -0.20238,0.16684 z m -0.80589,-0.30504 c 0.041,-0.0164 0.09,-0.0144 0.10888,0.004 0.0189,0.0189 -0.0147,0.0323 -0.0746,0.0298 -0.0662,-0.003 -0.0796,-0.0162 -0.0343,-0.0343 z m 5.68026,0 c 0.041,-0.0164 0.09,-0.0144 0.10887,0.004 0.0189,0.0189 -0.0147,0.0323 -0.0746,0.0298 -0.0662,-0.003 -0.0796,-0.0162 -0.0343,-0.0343 z m -1.74574,-0.10794 c 0.003,-0.0662 0.0162,-0.0796 0.0343,-0.0343 0.0164,0.041 0.0144,0.09 -0.004,0.10887 -0.0189,0.0189 -0.0323,-0.0147 -0.0298,-0.0746 z m 2.15401,0.0117 c 0,-0.0118 0.0447,-0.0565 0.0994,-0.0994 0.0901,-0.0707 0.0921,-0.0686 0.0214,0.0214 -0.0742,0.0946 -0.12085,0.12471 -0.12085,0.078 z m -5.39176,-0.63652 c 0.003,-0.0662 0.0162,-0.0796 0.0343,-0.0343 0.0164,0.041 0.0144,0.09 -0.004,0.10888 -0.0189,0.0189 -0.0323,-0.0147 -0.0298,-0.0746 z m 0.69032,-0.19407 c 0,-0.10935 0.0117,-0.15408 0.026,-0.0994 0.0143,0.0547 0.0143,0.14414 0,0.19881 -0.0143,0.0547 -0.026,0.01 -0.026,-0.0994 z m 2.0362,-0.0331 c 0.003,-0.0662 0.0162,-0.0796 0.0343,-0.0343 0.0164,0.041 0.0144,0.09 -0.004,0.10888 -0.0189,0.0189 -0.0323,-0.0147 -0.0298,-0.0746 z m -0.86201,-0.38193 c 0.0253,-0.0252 0.18392,-0.0376 0.35239,-0.0276 l 0.30633,0.0183 -0.3524,0.0276 c -0.19382,0.0152 -0.33166,0.007 -0.30632,-0.0182 z m 2.84013,0 c 0.0253,-0.0252 0.18391,-0.0376 0.35239,-0.0276 l 0.30633,0.0183 -0.3524,0.0276 c -0.19382,0.0152 -0.33166,0.007 -0.30632,-0.0182 z m -5.57536,-0.0236 c 0.10153,-0.0126 0.26768,-0.0126 0.36921,0 0.10154,0.0126 0.0185,0.0229 -0.18461,0.0229 -0.20307,0 -0.28614,-0.0103 -0.1846,-0.0229 z m -0.77656,-0.16245 c 0.003,-0.0662 0.0162,-0.0796 0.0343,-0.0343 0.0164,0.041 0.0144,0.09 -0.004,0.10887 -0.0189,0.0189 -0.0323,-0.0147 -0.0298,-0.0746 z m 2.08997,-0.0663 c -0.0707,-0.0901 -0.0686,-0.0921 0.0214,-0.0214 0.0547,0.0429 0.0994,0.0876 0.0994,0.0994 0,0.0468 -0.0466,0.0167 -0.12085,-0.078 z m 3.65713,-0.18461 c 0.019,-0.0697 0.15141,-0.0857 0.72855,-0.0881 l 0.7054,-0.003 -0.67946,0.019 c -0.44928,0.0126 -0.69609,0.0424 -0.72856,0.0881 -0.0352,0.0495 -0.0425,0.045 -0.0259,-0.0161 z m -5.30913,-0.0989 c 0.19648,-0.0111 0.50321,-0.011 0.68163,2.3e-4 0.17841,0.0112 0.0177,0.0203 -0.35724,0.0202 -0.3749,-1.1e-4 -0.52088,-0.009 -0.32439,-0.0204 z m 3.29232,0.001 c 0.10153,-0.0126 0.26768,-0.0126 0.36922,0 0.10153,0.0126 0.0185,0.0229 -0.18461,0.0229 -0.20307,0 -0.28615,-0.0103 -0.18461,-0.0229 z m -0.35502,-0.81094 -0.34081,-0.0377 0.35501,-0.01 c 0.20518,-0.006 0.35502,0.0144 0.35502,0.0473 0,0.0312 -0.006,0.0525 -0.0142,0.0472 -0.008,-0.005 -0.16757,-0.0265 -0.35502,-0.0472 z"
       id="path1183" /><path
       style="fill:#ecb35a;stroke-width:0.0568026"
       d="m 239.10162,137.46565 c 0.0553,-0.0144 0.13195,-0.0135 0.1704,0.002 0.0385,0.0156 -0.007,0.0273 -0.10048,0.0262 -0.0937,-0.001 -0.12519,-0.0139 -0.0699,-0.0283 z m 1.23885,-0.16418 c 0.003,-0.0662 0.0162,-0.0796 0.0343,-0.0343 0.0164,0.041 0.0144,0.09 -0.004,0.10887 -0.0189,0.0189 -0.0323,-0.0147 -0.0298,-0.0746 z m -8.1913,-0.17987 c -0.0707,-0.0901 -0.0686,-0.0921 0.0215,-0.0214 0.0547,0.0429 0.0994,0.0876 0.0994,0.0994 0,0.0468 -0.0466,0.0167 -0.12086,-0.0779 z m -6.39724,-0.28279 c 0.11716,-0.0123 0.30887,-0.0123 0.42602,0 0.11716,0.0122 0.0213,0.0223 -0.21301,0.0223 -0.23431,0 -0.33016,-0.01 -0.21301,-0.0223 z m 10.49876,-0.27577 c 0.003,-0.0662 0.0162,-0.0796 0.0343,-0.0343 0.0164,0.041 0.0144,0.09 -0.004,0.10887 -0.0189,0.0189 -0.0323,-0.0147 -0.0298,-0.0745 z m -11.0197,-0.0568 c 0.003,-0.0662 0.0162,-0.0796 0.0343,-0.0343 0.0164,0.041 0.0144,0.09 -0.004,0.10887 -0.0189,0.0189 -0.0323,-0.0147 -0.0298,-0.0746 z m 7.44114,-0.22721 c 0.003,-0.0662 0.0162,-0.0796 0.0343,-0.0343 0.0164,0.041 0.0144,0.09 -0.004,0.10887 -0.0189,0.0189 -0.0323,-0.0147 -0.0298,-0.0745 z m -0.79524,-0.11361 c 0.003,-0.0662 0.0162,-0.0796 0.0343,-0.0343 0.0164,0.041 0.0144,0.09 -0.004,0.10887 -0.0189,0.0189 -0.0323,-0.0147 -0.0298,-0.0745 z m 5.39625,-0.11361 c 0.003,-0.0662 0.0162,-0.0796 0.0343,-0.0343 0.0164,0.041 0.0144,0.09 -0.004,0.10887 -0.0189,0.0189 -0.0323,-0.0147 -0.0298,-0.0746 z m 0.79523,0 c 0.003,-0.0662 0.0162,-0.0796 0.0343,-0.0343 0.0164,0.041 0.0144,0.09 -0.004,0.10887 -0.0189,0.0189 -0.0323,-0.0147 -0.0298,-0.0746 z m -11.58772,-0.0568 c 0.003,-0.0662 0.0162,-0.0796 0.0343,-0.0343 0.0164,0.041 0.0144,0.09 -0.004,0.10888 -0.0189,0.0189 -0.0323,-0.0147 -0.0298,-0.0746 z m 13.3486,0 c 0.003,-0.0662 0.0162,-0.0796 0.0343,-0.0343 0.0164,0.041 0.0144,0.09 -0.004,0.10888 -0.0189,0.0189 -0.0323,-0.0147 -0.0298,-0.0746 z m -12.55337,-0.1136 c 0.003,-0.0662 0.0162,-0.0796 0.0343,-0.0343 0.0164,0.041 0.0144,0.09 -0.004,0.10887 -0.0189,0.0189 -0.0323,-0.0147 -0.0298,-0.0746 z m 11.81494,-0.17041 c 0.003,-0.0662 0.0162,-0.0796 0.0343,-0.0343 0.0164,0.041 0.0144,0.09 -0.004,0.10887 -0.0189,0.0189 -0.0323,-0.0147 -0.0298,-0.0745 z m -5.23032,-0.47809 -0.36922,-0.0372 0.38342,-0.01 c 0.22428,-0.006 0.38342,0.0138 0.38342,0.047 0,0.0312 -0.006,0.0524 -0.0142,0.047 -0.008,-0.005 -0.18034,-0.0265 -0.38341,-0.047 z m 9.13921,-0.017 c 0.0251,-0.025 0.22206,-0.0375 0.43765,-0.0278 l 0.39199,0.0176 -0.43765,0.0278 c -0.24071,0.0153 -0.41711,0.007 -0.39199,-0.0176 z m -6.25648,-0.0246 c 0.13277,-0.012 0.35004,-0.012 0.48282,0 0.13278,0.012 0.0241,0.0217 -0.24141,0.0217 -0.26555,0 -0.37419,-0.01 -0.24141,-0.0217 z m 1.61887,9.1e-4 c 0.0859,-0.013 0.2265,-0.013 0.31241,0 0.0859,0.013 0.0156,0.0237 -0.1562,0.0237 -0.17183,0 -0.24212,-0.0106 -0.15621,-0.0237 z m -4.72881,-0.61903 c 0.33907,-0.0427 0.72563,-0.0469 0.70134,-0.008 -0.0145,0.0234 -0.21023,0.0388 -0.43488,0.0341 -0.22466,-0.005 -0.34457,-0.0165 -0.26646,-0.0264 z m 2.96793,-0.008 c 0.42957,-0.01 1.1325,-0.01 1.56207,0 0.42957,0.01 0.0781,0.0175 -0.78103,0.0175 -0.85914,0 -1.21061,-0.008 -0.78104,-0.0175 z m 4.34641,0.001 c 0.1021,-0.0126 0.25547,-0.0124 0.34082,5.8e-4 0.0853,0.013 0.002,0.0233 -0.18563,0.023 -0.18744,-3.4e-4 -0.25728,-0.0109 -0.15519,-0.0236 z m -5.83299,-0.16237 c 0.003,-0.0662 0.0162,-0.0796 0.0343,-0.0343 0.0164,0.041 0.0144,0.09 -0.004,0.10887 -0.0189,0.0189 -0.0323,-0.0147 -0.0298,-0.0746 z m -0.73843,-0.22721 c 0.003,-0.0662 0.0162,-0.0796 0.0343,-0.0343 0.0164,0.041 0.0144,0.09 -0.004,0.10887 -0.0189,0.0189 -0.0323,-0.0147 -0.0298,-0.0745 z m 6.47187,-0.009 c 5.9e-4,-0.0674 0.0148,-0.0775 0.0442,-0.0313 0.0246,0.0387 0.2144,0.0768 0.43935,0.0883 l 0.39604,0.0202 -0.44022,0.0111 c -0.38591,0.01 -0.44011,-0.001 -0.43935,-0.0883 z m 0.0604,-0.38815 c 0.003,-0.0662 0.0162,-0.0796 0.0343,-0.0343 0.0164,0.041 0.0144,0.09 -0.004,0.10888 -0.0189,0.0189 -0.0323,-0.0147 -0.0298,-0.0746 z"
       id="path1181" /><path
       style="fill:#ffb031;fill-opacity:1;stroke-width:0.0568026"
       d="m 224.26602,138.28605 c 0.0257,-0.13278 0.0478,-0.26058 0.0492,-0.28401 10e-4,-0.0234 0.34882,-0.0426 0.77213,-0.0426 0.79843,0 1.04935,-0.0575 1.12635,-0.25815 0.0903,-0.23543 0.0562,-0.25306 -0.49014,-0.25339 -0.61652,-3.9e-4 -0.88436,-0.063 -1.05731,-0.24706 -0.20131,-0.21428 -0.20696,-0.47617 -0.0339,-1.57445 l 0.16043,-1.0183 h 0.3589 c 0.30412,0 0.35882,0.0152 0.3584,0.0994 -2.8e-4,0.0547 -0.063,0.49075 -0.1393,0.96906 -0.15687,0.98276 -0.14128,1.1105 0.14245,1.16725 0.17321,0.0346 0.84502,0.0521 0.85332,0.0222 0.002,-0.008 0.0854,-0.51264 0.18491,-1.12185 l 0.18097,-1.10765 0.38822,-0.0169 0.38823,-0.0169 -0.0331,0.15892 c -0.0182,0.0874 -0.12418,0.73404 -0.2355,1.43697 -0.2446,1.54443 -0.30469,1.74867 -0.59043,2.00682 -0.2868,0.25911 -0.60304,0.32209 -1.61727,0.32209 h -0.81321 z m -5.13904,-1.64728 c 0.0718,-0.44519 0.21318,-1.32705 0.31419,-1.95968 l 0.18367,-1.15026 h 0.60923 0.60923 l 0.0558,0.26982 c 0.0307,0.14839 0.15118,0.80659 0.2678,1.46266 0.11661,0.65607 0.22783,1.2103 0.24715,1.23162 0.0193,0.0213 0.3802,-0.63656 0.80196,-1.46195 l 0.76684,-1.50072 0.61171,-7.1e-4 c 0.60548,-7.1e-4 0.6114,5.9e-4 0.5819,0.12709 -0.0393,0.16864 -0.59719,3.65466 -0.59719,3.73182 0,0.0361 -0.15733,0.0597 -0.39761,0.0597 -0.29448,0 -0.39762,-0.0197 -0.39762,-0.0761 0,-0.0419 0.11502,-0.69776 0.25561,-1.45755 0.14059,-0.75979 0.25423,-1.40929 0.25255,-1.44335 -0.002,-0.0341 -0.34686,0.62184 -0.76704,1.45755 l -0.76398,1.51947 h -0.45422 c -0.24981,0 -0.45434,-0.006 -0.4545,-0.0142 -0.002,-0.10079 -0.5724,-3.01993 -0.59432,-3.04185 -0.0166,-0.0166 -0.0302,-0.005 -0.0302,0.0262 0,0.0671 -0.32362,2.50963 -0.37321,2.8168 l -0.0344,0.21301 h -0.41192 -0.41191 z m 8.26855,0.68417 c 0.046,-0.0717 0.57736,-0.95469 1.18071,-1.96222 l 1.09699,-1.83189 h 0.43704 0.43704 l 0.41496,1.49107 c 0.22822,0.82009 0.47382,1.70296 0.54576,1.96194 l 0.13081,0.47086 -0.46205,-0.0164 -0.46205,-0.0164 -0.0682,-0.28401 c -0.0375,-0.15621 -0.0843,-0.35431 -0.10387,-0.44022 l -0.0357,-0.15621 h -0.90466 -0.90465 l -0.24652,0.44022 -0.24653,0.44022 -0.4464,0.0167 -0.44641,0.0167 z m 2.92858,-1.5362 c -0.0147,-0.0391 -0.0984,-0.38413 -0.186,-0.76684 -0.0876,-0.38271 -0.17411,-0.69561 -0.19231,-0.69535 -0.0182,2.8e-4 -0.0979,0.12168 -0.17705,0.26981 -0.0792,0.14813 -0.26658,0.49299 -0.41642,0.76636 l -0.27245,0.49702 h 0.63551 c 0.48482,0 0.62915,-0.0168 0.60872,-0.071 z m 2.19918,1.5547 c -0.26418,-0.12 -0.52235,-0.40143 -0.57044,-0.62184 -0.0182,-0.0835 -0.0439,-0.18616 -0.057,-0.22812 -0.0423,-0.13486 0.0909,-0.81014 0.2032,-1.03018 0.31693,-0.62123 0.66786,-0.80905 1.59107,-0.85155 l 0.65323,-0.0301 0.087,-0.51122 0.087,-0.51122 0.38342,-0.0168 c 0.37425,-0.0164 0.38269,-0.0137 0.3534,0.1136 -0.0381,0.16579 -0.59831,3.66741 -0.59831,3.74006 0,0.0322 -0.38524,0.0537 -0.95144,0.0529 -0.80002,-0.001 -0.98798,-0.0178 -1.181,-0.10552 z m 1.47419,-0.61746 c 0.0178,-0.0859 0.0713,-0.41182 0.11878,-0.72423 0.0475,-0.31242 0.10028,-0.62923 0.11726,-0.70404 l 0.0309,-0.13601 -0.48015,0.03 c -0.71685,0.0447 -0.94306,0.22291 -1.05898,0.83415 -0.0392,0.20692 -0.035,0.34852 0.0151,0.50137 0.0855,0.26107 0.29236,0.34712 0.84585,0.3518 0.36865,0.003 0.37978,-10e-4 0.41131,-0.153 z m 1.39644,0.62483 c -1.1e-4,-0.0547 0.0948,-0.6947 0.21092,-1.42228 l 0.21116,-1.32288 1.79137,0.0164 c 2.01146,0.0184 2.05377,0.0262 2.24104,0.40981 0.10875,0.22278 0.1087,0.22396 -0.0505,1.24966 -0.0876,0.56466 -0.17132,1.05862 -0.18593,1.09767 -0.0262,0.0701 -0.75285,0.10825 -0.75285,0.0396 0,-0.0173 0.0639,-0.42739 0.14201,-0.91132 0.16576,-1.02709 0.17023,-1.1216 0.0574,-1.21528 -0.0766,-0.0636 -0.8183,-0.15996 -0.82847,-0.10764 -0.002,0.0121 -0.0859,0.52042 -0.18567,1.12963 l -0.18139,1.10765 -0.38236,0.0168 c -0.22232,0.01 -0.38236,-0.006 -0.38236,-0.0387 0,-0.0305 0.0767,-0.52772 0.17041,-1.10494 0.0937,-0.57722 0.17041,-1.06465 0.17041,-1.08319 0,-0.0543 -0.89906,-0.0387 -0.93296,0.0162 -0.0274,0.0443 -0.3735,2.06074 -0.3735,2.17606 0,0.0254 -0.16615,0.0462 -0.36922,0.0462 -0.31367,0 -0.36925,-0.0149 -0.36946,-0.0994 z m 5.09068,-0.71004 c 0.0717,-0.44519 0.1729,-1.08421 0.22487,-1.42006 l 0.0945,-0.61063 h 0.39085 c 0.2235,0 0.39085,0.0244 0.39085,0.057 0,0.0752 -0.38812,2.49049 -0.42669,2.65535 -0.0274,0.11712 -0.0623,0.1278 -0.41732,0.1278 h -0.38742 z m 1.40721,0.65323 c 0.0171,-0.0859 0.10975,-0.65465 0.2058,-1.26385 0.096,-0.60921 0.18833,-1.17795 0.20507,-1.26386 l 0.0304,-0.15621 0.91853,3.4e-4 c 1.0451,3.4e-4 1.27765,0.0458 1.4829,0.28972 0.18686,0.22207 0.1864,0.3497 -0.006,1.57025 l -0.15421,0.97984 h -0.37774 -0.37773 l 0.13144,-0.80943 c 0.16343,-1.00649 0.17172,-1.33728 0.0349,-1.39345 -0.0547,-0.0224 -0.30262,-0.0408 -0.55099,-0.0408 h -0.4516 l -0.15831,0.99405 c -0.2223,1.39572 -0.15318,1.24965 -0.59137,1.24965 h -0.37265 l 0.0312,-0.1562 z m -0.98779,-3.15881 c 0,-0.0425 0.0162,-0.19587 0.0361,-0.34082 l 0.0361,-0.26354 h 0.39762 0.39762 l -0.0361,0.26354 c -0.0199,0.14495 -0.0361,0.29832 -0.0361,0.34082 0,0.0578 -0.10018,0.0773 -0.39762,0.0773 -0.29744,0 -0.39761,-0.0195 -0.39761,-0.0773 z"
       id="path1179" /><path
       style="fill:#ffb031;fill-opacity:1;stroke-width:0.0568026"
       d="m 210.05914,138.22925 c -6e-4,-0.0391 0.10803,-0.75472 0.24141,-1.59036 l 0.24249,-1.51936 0.79524,-2e-5 c 0.90162,-3e-5 1.09654,0.0578 1.31953,0.39161 0.25056,0.37507 0.15251,1.10296 -0.20146,1.49557 -0.30563,0.33899 -0.56733,0.43878 -1.15459,0.44027 -0.55598,0.001 -0.53275,-0.0185 -0.59239,0.50864 l -0.039,0.34465 h -0.30508 c -0.20561,0 -0.30543,-0.0232 -0.30616,-0.071 z m 1.61224,-1.31378 c 0.25378,-0.10604 0.42034,-0.33319 0.4656,-0.63498 0.0555,-0.37026 -0.004,-0.53033 -0.23087,-0.6253 -0.20214,-0.0845 -0.82327,-0.11377 -0.82367,-0.0389 -3.5e-4,0.0659 -0.16652,1.10585 -0.19968,1.24965 -0.0278,0.12073 -0.012,0.12781 0.28585,0.12781 0.17343,0 0.39968,-0.0352 0.50277,-0.0783 z m 4.0691,1.35311 c 0,-0.0543 0.45429,-2.88658 0.48463,-3.02147 0.0281,-0.1249 0.0464,-0.1278 0.80498,-0.1278 0.88702,0 1.15446,0.0812 1.35205,0.41061 0.27986,0.46654 0.0337,1.36003 -0.47269,1.71596 -0.22597,0.15882 -0.28665,0.17287 -0.83401,0.19313 l -0.59031,0.0219 -0.0677,0.41969 -0.0677,0.41969 h -0.30462 c -0.16754,0 -0.30462,-0.0143 -0.30462,-0.0317 z m 1.64727,-1.349 c 0.25364,-0.0865 0.45442,-0.4567 0.45442,-0.83786 0,-0.38206 -0.12055,-0.47158 -0.64109,-0.47606 l -0.40975,-0.004 -0.094,0.53962 c -0.0517,0.2968 -0.0964,0.60992 -0.0994,0.69583 -0.005,0.15165 0.003,0.15612 0.29278,0.153 0.16402,-0.002 0.38768,-0.0337 0.49702,-0.071 z m -4.10996,-0.96244 c 0.13429,-0.82008 0.24489,-1.5358 0.24577,-1.59047 0.001,-0.0827 0.0553,-0.0994 0.32129,-0.0994 h 0.31968 l -0.0372,0.24141 c -0.0205,0.13277 -0.0521,0.32448 -0.0704,0.42602 l -0.0332,0.18461 h 0.49097 c 0.74439,0 0.99811,0.14693 0.99887,0.57849 1.8e-4,0.10359 -0.0549,0.53981 -0.1225,0.96938 l -0.12283,0.78103 h -0.30352 c -0.18889,0 -0.30352,-0.0244 -0.30352,-0.0646 0,-0.0355 0.0548,-0.40801 0.12168,-0.82774 0.1492,-0.93578 0.14071,-0.95375 -0.4503,-0.95375 h -0.38141 l -0.15232,0.90884 c -0.0838,0.49986 -0.15407,0.91523 -0.15621,0.92304 -0.002,0.008 -0.14004,0.0142 -0.30646,0.0142 h -0.30257 z"
       id="path1177" /></g></svg>
