<?xml version="1.0" encoding="UTF-8" standalone="no"?>
<svg
   width="2490"
   height="2490.0002"
   viewBox="0 0 256 255.97203"
   preserveAspectRatio="xMinYMin"
   version="1.1"
   id="svg3977"
   sodipodi:docname="symfony.svg"
   xmlns:inkscape="http://www.inkscape.org/namespaces/inkscape"
   xmlns:sodipodi="http://sodipodi.sourceforge.net/DTD/sodipodi-0.dtd"
   xmlns="http://www.w3.org/2000/svg"
   xmlns:svg="http://www.w3.org/2000/svg">
  <defs
     id="defs3981" />
  <sodipodi:namedview
     id="namedview3979"
     pagecolor="#ffffff"
     bordercolor="#000000"
     borderopacity="0.25"
     inkscape:showpageshadow="2"
     inkscape:pageopacity="0.0"
     inkscape:pagecheckerboard="0"
     inkscape:deskcolor="#d1d1d1"
     showgrid="false" />
  <circle
     fill="#1A171B"
     cx="128"
     cy="128"
     r="128"
     id="circle3973"
     style="fill:#ffb031;fill-opacity:1"
     inkscape:export-filename="symfony.svg"
     inkscape:export-xdpi="96"
     inkscape:export-ydpi="96" />
  <path
     d="m 183.706,47.297004 c -12.986,0.453 -24.32,7.61 -32.757,17.51 -9.342,10.855 -15.557,23.73 -20.035,36.871996 -8.01,-6.564996 -14.19,-15.063996 -27.041,-18.769996 -9.933,-2.852 -20.366,-1.674 -29.96,5.474 -4.545,3.395 -7.676,8.527 -9.165,13.350996 -3.855,12.537 4.053,23.694 7.645,27.7 l 7.853,8.416 c 1.619,1.65 5.518,5.955 3.612,12.127 -2.06,6.71 -10.15,11.055 -18.448,8.495 -3.706,-1.13 -9.03,-3.891 -7.838,-7.779 0.493,-1.59 1.631,-2.78 2.241,-4.155 0.56,-1.181 0.827,-2.067 0.997,-2.587 1.516,-4.95 -0.555,-11.39 -5.857,-13.025 -4.946,-1.516 -10.007,-0.315 -11.969,6.054 -2.225,7.235 1.237,20.366 19.783,26.084 21.729,6.676 40.11,-5.155 42.717,-20.586 1.642,-9.665 -2.722,-16.845 -10.717,-26.08 l -6.514,-7.204 c -3.946,-3.942 -5.301,-10.660996 -1.217,-15.824996 3.446,-4.356 8.354,-6.215 16.392,-4.029 11.733,3.186 16.963,11.326996 25.69,17.892996 -3.603,11.819 -5.958,23.682 -8.09,34.32 l -1.299,7.931 c -6.238,32.721 -11,50.688 -23.375,61.003 -2.493,1.773 -6.057,4.427 -11.429,4.612 -2.816,0.087 -3.726,-1.85 -3.765,-2.694 -0.067,-1.977 1.599,-2.883 2.706,-3.773 1.654,-0.902 4.155,-2.398 3.985,-7.191 -0.18,-5.664 -4.872,-10.575 -11.654,-10.35 -5.08,0.173 -12.823,4.954 -12.532,13.705 0.303,9.039 8.728,15.813 21.43,15.384 6.79,-0.233 21.952,-2.997 36.895,-20.76 17.392,-20.362 22.256,-43.705 25.915,-60.79 l 4.084,-22.556 c 2.269,0.272 4.695,0.453 7.334,0.516 21.661,0.457 32.496,-10.763 32.657,-18.923996 0.107,-4.939 -3.241,-9.799 -7.928,-9.689 -3.355,0.095 -7.57,2.328 -8.582,6.968 -0.988,4.552 6.893,8.659996 0.733,12.649996 -4.376,2.832 -12.221,4.828 -23.269,3.206 l 2.009,-11.102996 c 4.1,-21.055 9.157,-46.954 28.341,-47.584 1.398,-0.071 6.514,0.063 6.633,3.446 0.035,1.13 -0.245,1.418 -1.568,4.005 -1.347,2.017 -1.855,3.734 -1.792,5.707 0.185,5.376 4.273,8.909 10.185,8.696 7.916,-0.256 10.193,-7.963 10.063,-11.921 -0.32,-9.3 -10.122,-15.175 -23.1,-14.75 z"
     fill="#FFF"
     id="path3975"
     style="fill:#1a1a1a" />
</svg>
