<?xml version="1.0" encoding="UTF-8" standalone="no"?>
<svg
   height="2403.7881"
   viewBox="-11.9 -2 975.70227 974.83153"
   width="2429.7795"
   version="1.1"
   id="svg4342"
   sodipodi:docname="vs-code.svg"
   xmlns:inkscape="http://www.inkscape.org/namespaces/inkscape"
   xmlns:sodipodi="http://sodipodi.sourceforge.net/DTD/sodipodi-0.dtd"
   xmlns="http://www.w3.org/2000/svg"
   xmlns:svg="http://www.w3.org/2000/svg">
  <defs
     id="defs4346" />
  <sodipodi:namedview
     id="namedview4344"
     pagecolor="#ffffff"
     bordercolor="#000000"
     borderopacity="0.25"
     inkscape:showpageshadow="2"
     inkscape:pageopacity="0.0"
     inkscape:pagecheckerboard="0"
     inkscape:deskcolor="#d1d1d1"
     showgrid="false" />
  <path
     d="m -7.4996435,337.93842 c 0,0 -23.9999995,-17.3 4.8,-40.4 l 67.1000005,-60 c 0,0 19.2,-20.2 39.500003,-2.6 l 619.2,468.8 v 224.8 c 0,0 -0.3,35.3 -45.6,31.4 z"
     fill="#2489ca"
     id="path4334"
     style="fill:#ffb031;fill-opacity:1" />
  <path
     d="m 152.10036,482.83842 -159.6000035,145.1 c 0,0 -16.3999995,12.2 0,34 l 74.1000005,67.4 c 0,0 17.6,18.9 43.600003,-2.6 l 169.2,-128.3 z"
     fill="#1070b3"
     id="path4336"
     style="fill:#ffb031;fill-opacity:1" />
  <path
     d="m 432.30036,484.03842 292.7,-223.5 -1.9,-223.600004 c 0,0 -12.5,-48.8 -54.2,-23.4 l -389.5,354.500004 z"
     fill="#0877b9"
     id="path4338"
     style="fill:#ffb031;fill-opacity:1" />
  <path
     d="m 677.50036,960.23842 c 17,17.4 37.6,11.7 37.6,11.7 l 228.1,-112.4 c 29.2,-19.9 25.1,-44.6 25.1,-44.6 v -671.2 c 0,-29.5 -30.2,-39.7 -30.2,-39.7 l -197.7,-95.3000041 c -43.2,-26.6999999 -71.5,4.8000001 -71.5,4.8000001 0,0 36.4,-26.2 54.2,23.4 V 924.43842 c 0,6.1 -1.3,12.1 -3.9,17.5 -5.2,10.5 -16.5,20.3 -43.6,16.2 z"
     fill="#3c99d4"
     id="path4340"
     style="fill:#ffb031;fill-opacity:1" />
</svg>
